<?xml version="1.0" encoding="UTF-8"?>
<svg xmlns="http://www.w3.org/2000/svg" xmlns:xlink="http://www.w3.org/1999/xlink" width="854" height="480" viewBox="0 0 854 480">
<defs>
<g>
<g id="glyph-0-0">
<path d="M 4.585938 -1.710938 C 4.585938 -1.4375 4.535156 -1.183594 4.433594 -0.957031 C 4.332031 -0.730469 4.179688 -0.535156 3.984375 -0.375 C 3.785156 -0.214844 3.546875 -0.09375 3.277344 -0.0078125 C 3.007812 0.0742188 2.679688 0.117188 2.292969 0.117188 C 1.851562 0.117188 1.476562 0.0820312 1.160156 0.0078125 C 0.84375 -0.0664062 0.589844 -0.148438 0.390625 -0.238281 L 0.390625 -1.464844 L 0.527344 -1.464844 C 0.734375 -1.335938 0.980469 -1.21875 1.257812 -1.125 C 1.539062 -1.027344 1.792969 -0.980469 2.023438 -0.980469 C 2.160156 -0.980469 2.308594 -0.992188 2.46875 -1.015625 C 2.632812 -1.039062 2.765625 -1.09375 2.875 -1.171875 C 2.960938 -1.238281 3.03125 -1.316406 3.082031 -1.40625 C 3.132812 -1.5 3.160156 -1.628906 3.160156 -1.800781 C 3.160156 -1.96875 3.121094 -2.09375 3.050781 -2.183594 C 2.976562 -2.273438 2.878906 -2.339844 2.757812 -2.382812 C 2.636719 -2.425781 2.488281 -2.449219 2.320312 -2.453125 C 2.152344 -2.457031 2 -2.460938 1.871094 -2.460938 L 1.628906 -2.460938 L 1.628906 -3.457031 L 1.851562 -3.457031 C 2.023438 -3.457031 2.183594 -3.464844 2.328125 -3.480469 C 2.472656 -3.492188 2.59375 -3.523438 2.695312 -3.570312 C 2.796875 -3.617188 2.875 -3.683594 2.933594 -3.769531 C 2.992188 -3.855469 3.019531 -3.972656 3.019531 -4.121094 C 3.019531 -4.234375 2.992188 -4.328125 2.9375 -4.398438 C 2.886719 -4.472656 2.820312 -4.527344 2.742188 -4.570312 C 2.652344 -4.613281 2.542969 -4.644531 2.421875 -4.660156 C 2.300781 -4.675781 2.199219 -4.683594 2.113281 -4.683594 C 1.972656 -4.683594 1.832031 -4.664062 1.6875 -4.632812 C 1.542969 -4.601562 1.402344 -4.558594 1.265625 -4.507812 C 1.160156 -4.46875 1.046875 -4.414062 0.929688 -4.351562 C 0.8125 -4.285156 0.726562 -4.238281 0.671875 -4.203125 L 0.554688 -4.203125 L 0.554688 -5.414062 C 0.75 -5.5 1.011719 -5.578125 1.34375 -5.65625 C 1.671875 -5.734375 2.011719 -5.773438 2.355469 -5.773438 C 2.691406 -5.773438 2.984375 -5.742188 3.230469 -5.683594 C 3.476562 -5.625 3.6875 -5.542969 3.863281 -5.429688 C 4.054688 -5.3125 4.199219 -5.160156 4.296875 -4.976562 C 4.390625 -4.792969 4.4375 -4.585938 4.4375 -4.355469 C 4.4375 -4.035156 4.347656 -3.753906 4.160156 -3.511719 C 3.972656 -3.269531 3.730469 -3.113281 3.425781 -3.042969 L 3.425781 -2.988281 C 3.558594 -2.96875 3.691406 -2.933594 3.820312 -2.886719 C 3.945312 -2.839844 4.070312 -2.757812 4.191406 -2.652344 C 4.304688 -2.550781 4.402344 -2.425781 4.476562 -2.269531 C 4.550781 -2.113281 4.585938 -1.929688 4.585938 -1.710938 Z "/>
</g>
<g id="glyph-0-1">
<path d="M 1.886719 0 L 0.542969 0 L 0.542969 -1.492188 L 1.886719 -1.492188 Z "/>
</g>
</g>
</defs>
<g fill="rgb(22.352941%, 100%, 7.843137%)" fill-opacity="1">
<use xlink:href="#glyph-0-0" x="30" y="27.78125"/>
<use xlink:href="#glyph-0-1" x="35" y="27.78125"/>
</g>
</svg>
