<?xml version="1.0" encoding="UTF-8"?>
<svg xmlns="http://www.w3.org/2000/svg" xmlns:xlink="http://www.w3.org/1999/xlink" width="854" height="480" viewBox="0 0 854 480">
<defs>
<g>
<g id="glyph-0-0">
<path d="M 5.90625 0 L 4.59375 0 L 4.59375 -3.480469 L 3.640625 -1.234375 L 2.742188 -1.234375 L 1.785156 -3.480469 L 1.785156 0 L 0.542969 0 L 0.542969 -5.25 L 2.0625 -5.25 L 3.226562 -2.660156 L 4.386719 -5.25 L 5.90625 -5.25 Z "/>
</g>
<g id="glyph-0-1">
<path d="M 4.152344 0 L 2.917969 0 L 2.917969 -0.4375 C 2.703125 -0.257812 2.507812 -0.121094 2.328125 -0.03125 C 2.148438 0.0625 1.9375 0.109375 1.6875 0.109375 C 1.296875 0.109375 0.992188 -0.015625 0.769531 -0.261719 C 0.550781 -0.511719 0.441406 -0.882812 0.441406 -1.382812 L 0.441406 -3.960938 L 1.683594 -3.960938 L 1.683594 -1.996094 C 1.683594 -1.792969 1.6875 -1.625 1.699219 -1.496094 C 1.707031 -1.367188 1.734375 -1.257812 1.773438 -1.167969 C 1.8125 -1.085938 1.871094 -1.023438 1.949219 -0.980469 C 2.027344 -0.9375 2.136719 -0.917969 2.277344 -0.917969 C 2.363281 -0.917969 2.46875 -0.9375 2.585938 -0.980469 C 2.707031 -1.023438 2.816406 -1.082031 2.917969 -1.152344 L 2.917969 -3.960938 L 4.152344 -3.960938 Z "/>
</g>
<g id="glyph-0-2">
<path d="M 1.707031 0 L 0.472656 0 L 0.472656 -5.488281 L 1.707031 -5.488281 Z "/>
</g>
<g id="glyph-0-3">
<path d="M 1.988281 0.078125 C 1.484375 0.078125 1.121094 -0.0273438 0.890625 -0.234375 C 0.660156 -0.441406 0.546875 -0.777344 0.546875 -1.25 L 0.546875 -3.101562 L 0.0742188 -3.101562 L 0.0742188 -3.960938 L 0.546875 -3.960938 L 0.546875 -5.09375 L 1.78125 -5.09375 L 1.78125 -3.960938 L 2.96875 -3.960938 L 2.96875 -3.101562 L 1.78125 -3.101562 L 1.78125 -1.695312 C 1.78125 -1.558594 1.78125 -1.4375 1.785156 -1.332031 C 1.785156 -1.230469 1.804688 -1.136719 1.839844 -1.054688 C 1.875 -0.972656 1.933594 -0.90625 2.015625 -0.859375 C 2.097656 -0.8125 2.21875 -0.785156 2.378906 -0.785156 C 2.445312 -0.785156 2.53125 -0.800781 2.640625 -0.828125 C 2.746094 -0.855469 2.820312 -0.882812 2.863281 -0.90625 L 2.96875 -0.90625 L 2.96875 -0.0351562 C 2.835938 0 2.691406 0.0273438 2.542969 0.046875 C 2.390625 0.0664062 2.207031 0.078125 1.988281 0.078125 Z "/>
</g>
<g id="glyph-0-4">
<path d="M 1.707031 0 L 0.472656 0 L 0.472656 -3.960938 L 1.707031 -3.960938 L 1.707031 0 M 1.742188 -4.523438 L 0.4375 -4.523438 L 0.4375 -5.488281 L 1.742188 -5.488281 Z "/>
</g>
<g id="glyph-0-5">
<path d="M 4.355469 -2.035156 C 4.355469 -1.402344 4.195312 -0.890625 3.875 -0.503906 C 3.554688 -0.117188 3.15625 0.078125 2.6875 0.078125 C 2.488281 0.078125 2.316406 0.0546875 2.171875 0.0117188 C 2.027344 -0.0351562 1.871094 -0.101562 1.707031 -0.199219 L 1.707031 1.453125 L 0.472656 1.453125 L 0.472656 -3.960938 L 1.707031 -3.960938 L 1.707031 -3.546875 C 1.886719 -3.703125 2.074219 -3.828125 2.261719 -3.925781 C 2.449219 -4.023438 2.667969 -4.070312 2.914062 -4.070312 C 3.371094 -4.070312 3.726562 -3.886719 3.976562 -3.523438 C 4.230469 -3.160156 4.355469 -2.664062 4.355469 -2.035156 M 3.09375 -2.011719 C 3.09375 -2.394531 3.035156 -2.675781 2.914062 -2.847656 C 2.796875 -3.023438 2.609375 -3.109375 2.359375 -3.109375 C 2.25 -3.109375 2.140625 -3.09375 2.03125 -3.058594 C 1.921875 -3.023438 1.8125 -2.96875 1.707031 -2.898438 L 1.707031 -0.90625 C 1.773438 -0.878906 1.84375 -0.859375 1.921875 -0.847656 C 2.003906 -0.835938 2.097656 -0.828125 2.203125 -0.828125 C 2.503906 -0.828125 2.726562 -0.925781 2.875 -1.125 C 3.019531 -1.320312 3.09375 -1.613281 3.09375 -2.011719 Z "/>
</g>
<g id="glyph-0-6">
<path d="M 2.5 0.105469 C 1.753906 0.105469 1.179688 -0.0742188 0.78125 -0.429688 C 0.382812 -0.789062 0.183594 -1.296875 0.183594 -1.957031 C 0.183594 -2.605469 0.367188 -3.121094 0.742188 -3.503906 C 1.113281 -3.890625 1.632812 -4.082031 2.300781 -4.082031 C 2.90625 -4.082031 3.363281 -3.921875 3.667969 -3.59375 C 3.972656 -3.265625 4.125 -2.800781 4.125 -2.191406 L 4.125 -1.746094 L 1.421875 -1.746094 C 1.433594 -1.5625 1.472656 -1.410156 1.539062 -1.285156 C 1.601562 -1.160156 1.691406 -1.0625 1.796875 -0.992188 C 1.90625 -0.917969 2.027344 -0.867188 2.167969 -0.835938 C 2.308594 -0.800781 2.464844 -0.785156 2.632812 -0.785156 C 2.773438 -0.785156 2.914062 -0.800781 3.054688 -0.835938 C 3.191406 -0.867188 3.320312 -0.90625 3.433594 -0.960938 C 3.535156 -1.003906 3.628906 -1.050781 3.714844 -1.105469 C 3.800781 -1.15625 3.871094 -1.203125 3.925781 -1.242188 L 4.054688 -1.242188 L 4.054688 -0.222656 C 3.953125 -0.183594 3.863281 -0.144531 3.777344 -0.109375 C 3.695312 -0.078125 3.582031 -0.0429688 3.433594 -0.0078125 C 3.300781 0.0273438 3.164062 0.0546875 3.019531 0.0742188 C 2.878906 0.0976562 2.703125 0.105469 2.5 0.105469 M 2.910156 -2.488281 C 2.902344 -2.75 2.84375 -2.949219 2.726562 -3.085938 C 2.613281 -3.222656 2.4375 -3.289062 2.203125 -3.289062 C 1.964844 -3.289062 1.777344 -3.21875 1.640625 -3.074219 C 1.507812 -2.933594 1.433594 -2.738281 1.417969 -2.488281 Z "/>
</g>
<g id="glyph-0-7">
</g>
<g id="glyph-0-8">
<path d="M 5.207031 0 L 5.207031 -1.976562 C 5.207031 -2.171875 5.203125 -2.339844 5.195312 -2.472656 C 5.1875 -2.605469 5.167969 -2.714844 5.132812 -2.800781 C 5.097656 -2.886719 5.042969 -2.945312 4.96875 -2.984375 C 4.894531 -3.023438 4.789062 -3.042969 4.65625 -3.042969 C 4.5625 -3.042969 4.46875 -3.023438 4.375 -2.980469 C 4.285156 -2.941406 4.183594 -2.882812 4.078125 -2.808594 L 4.078125 0 L 2.835938 0 L 2.835938 -1.976562 C 2.835938 -2.171875 2.832031 -2.335938 2.824219 -2.46875 C 2.816406 -2.605469 2.792969 -2.714844 2.757812 -2.800781 C 2.722656 -2.886719 2.667969 -2.945312 2.59375 -2.984375 C 2.519531 -3.023438 2.417969 -3.042969 2.285156 -3.042969 C 2.183594 -3.042969 2.085938 -3.019531 1.988281 -2.972656 C 1.894531 -2.925781 1.796875 -2.871094 1.707031 -2.808594 L 1.707031 0 L 0.472656 0 L 0.472656 -3.960938 L 1.707031 -3.960938 L 1.707031 -3.523438 C 1.910156 -3.695312 2.097656 -3.828125 2.277344 -3.925781 C 2.457031 -4.023438 2.65625 -4.070312 2.882812 -4.070312 C 3.125 -4.070312 3.335938 -4.011719 3.519531 -3.898438 C 3.703125 -3.78125 3.84375 -3.609375 3.9375 -3.382812 C 4.175781 -3.601562 4.402344 -3.773438 4.609375 -3.890625 C 4.820312 -4.011719 5.035156 -4.070312 5.25 -4.070312 C 5.433594 -4.070312 5.597656 -4.039062 5.746094 -3.980469 C 5.890625 -3.921875 6.015625 -3.835938 6.117188 -3.71875 C 6.226562 -3.589844 6.308594 -3.4375 6.363281 -3.265625 C 6.417969 -3.089844 6.445312 -2.859375 6.445312 -2.578125 L 6.445312 0 Z "/>
</g>
<g id="glyph-0-9">
<path d="M 4.273438 -1.976562 C 4.273438 -1.328125 4.097656 -0.8125 3.738281 -0.4375 C 3.382812 -0.0625 2.878906 0.125 2.230469 0.125 C 1.582031 0.125 1.078125 -0.0625 0.722656 -0.4375 C 0.363281 -0.8125 0.183594 -1.328125 0.183594 -1.976562 C 0.183594 -2.636719 0.363281 -3.152344 0.722656 -3.523438 C 1.078125 -3.898438 1.582031 -4.082031 2.230469 -4.082031 C 2.878906 -4.082031 3.382812 -3.894531 3.738281 -3.519531 C 4.09375 -3.144531 4.273438 -2.632812 4.273438 -1.976562 M 3.007812 -1.972656 C 3.007812 -2.207031 2.988281 -2.402344 2.949219 -2.558594 C 2.910156 -2.714844 2.859375 -2.839844 2.789062 -2.933594 C 2.714844 -3.03125 2.632812 -3.101562 2.542969 -3.140625 C 2.449219 -3.179688 2.347656 -3.199219 2.230469 -3.199219 C 2.117188 -3.199219 2.019531 -3.183594 1.929688 -3.148438 C 1.839844 -3.113281 1.757812 -3.046875 1.683594 -2.953125 C 1.613281 -2.859375 1.554688 -2.734375 1.511719 -2.574219 C 1.46875 -2.414062 1.449219 -2.214844 1.449219 -1.972656 C 1.449219 -1.730469 1.46875 -1.535156 1.507812 -1.382812 C 1.550781 -1.234375 1.601562 -1.117188 1.664062 -1.027344 C 1.730469 -0.933594 1.8125 -0.867188 1.910156 -0.824219 C 2.011719 -0.78125 2.121094 -0.761719 2.238281 -0.761719 C 2.339844 -0.761719 2.4375 -0.78125 2.539062 -0.824219 C 2.644531 -0.867188 2.726562 -0.929688 2.785156 -1.015625 C 2.859375 -1.117188 2.914062 -1.238281 2.953125 -1.378906 C 2.988281 -1.523438 3.007812 -1.71875 3.007812 -1.972656 Z "/>
</g>
<g id="glyph-0-10">
<path d="M 4.074219 0 L 2.839844 0 L 2.839844 -0.414062 C 2.757812 -0.347656 2.667969 -0.277344 2.566406 -0.199219 C 2.464844 -0.125 2.375 -0.0703125 2.296875 -0.03125 C 2.195312 0.015625 2.097656 0.0507812 2.003906 0.0742188 C 1.90625 0.0976562 1.792969 0.109375 1.65625 0.109375 C 1.207031 0.109375 0.847656 -0.078125 0.585938 -0.453125 C 0.320312 -0.824219 0.191406 -1.324219 0.191406 -1.949219 C 0.191406 -2.296875 0.234375 -2.59375 0.324219 -2.847656 C 0.414062 -3.101562 0.539062 -3.324219 0.695312 -3.511719 C 0.839844 -3.683594 1.011719 -3.820312 1.214844 -3.917969 C 1.421875 -4.019531 1.636719 -4.070312 1.867188 -4.070312 C 2.074219 -4.070312 2.242188 -4.046875 2.375 -4.003906 C 2.507812 -3.960938 2.664062 -3.894531 2.839844 -3.800781 L 2.839844 -5.488281 L 4.074219 -5.488281 L 4.074219 0 M 2.839844 -1.09375 L 2.839844 -3.035156 C 2.777344 -3.066406 2.699219 -3.09375 2.597656 -3.113281 C 2.5 -3.132812 2.414062 -3.140625 2.34375 -3.140625 C 2.050781 -3.140625 1.828125 -3.039062 1.675781 -2.832031 C 1.527344 -2.625 1.453125 -2.335938 1.453125 -1.964844 C 1.453125 -1.574219 1.511719 -1.292969 1.632812 -1.117188 C 1.75 -0.945312 1.941406 -0.855469 2.207031 -0.855469 C 2.316406 -0.855469 2.425781 -0.878906 2.535156 -0.921875 C 2.644531 -0.960938 2.746094 -1.019531 2.839844 -1.09375 Z "/>
</g>
<g id="glyph-0-11">
<path d="M 1.679688 0.109375 C 1.386719 0.109375 1.113281 0.078125 0.851562 0.015625 C 0.59375 -0.0507812 0.378906 -0.125 0.207031 -0.207031 L 0.207031 -1.253906 L 0.308594 -1.253906 C 0.367188 -1.207031 0.4375 -1.15625 0.511719 -1.105469 C 0.585938 -1.050781 0.691406 -0.992188 0.824219 -0.933594 C 0.941406 -0.878906 1.070312 -0.835938 1.214844 -0.796875 C 1.359375 -0.757812 1.515625 -0.738281 1.6875 -0.738281 C 1.859375 -0.738281 2.011719 -0.765625 2.144531 -0.816406 C 2.277344 -0.871094 2.34375 -0.957031 2.34375 -1.074219 C 2.34375 -1.167969 2.316406 -1.238281 2.253906 -1.285156 C 2.191406 -1.332031 2.074219 -1.375 1.898438 -1.417969 C 1.804688 -1.441406 1.683594 -1.464844 1.542969 -1.492188 C 1.398438 -1.519531 1.269531 -1.550781 1.160156 -1.585938 C 0.851562 -1.683594 0.617188 -1.828125 0.460938 -2.015625 C 0.304688 -2.203125 0.226562 -2.453125 0.226562 -2.761719 C 0.226562 -2.9375 0.265625 -3.105469 0.347656 -3.261719 C 0.429688 -3.417969 0.546875 -3.554688 0.707031 -3.679688 C 0.863281 -3.796875 1.058594 -3.894531 1.289062 -3.964844 C 1.519531 -4.035156 1.78125 -4.070312 2.074219 -4.070312 C 2.351562 -4.070312 2.605469 -4.042969 2.839844 -3.988281 C 3.070312 -3.933594 3.269531 -3.867188 3.429688 -3.789062 L 3.429688 -2.785156 L 3.328125 -2.785156 C 3.285156 -2.820312 3.21875 -2.863281 3.128906 -2.917969 C 3.035156 -2.972656 2.945312 -3.019531 2.859375 -3.0625 C 2.757812 -3.109375 2.640625 -3.148438 2.511719 -3.175781 C 2.382812 -3.207031 2.253906 -3.222656 2.121094 -3.222656 C 1.941406 -3.222656 1.789062 -3.191406 1.667969 -3.132812 C 1.542969 -3.070312 1.480469 -2.988281 1.480469 -2.886719 C 1.480469 -2.800781 1.511719 -2.726562 1.574219 -2.675781 C 1.632812 -2.625 1.765625 -2.574219 1.972656 -2.523438 C 2.078125 -2.5 2.199219 -2.472656 2.335938 -2.449219 C 2.472656 -2.425781 2.605469 -2.390625 2.734375 -2.347656 C 3.019531 -2.257812 3.234375 -2.121094 3.378906 -1.945312 C 3.527344 -1.765625 3.601562 -1.53125 3.601562 -1.238281 C 3.601562 -1.050781 3.558594 -0.875 3.46875 -0.707031 C 3.382812 -0.539062 3.261719 -0.398438 3.101562 -0.28125 C 2.929688 -0.15625 2.730469 -0.0625 2.503906 0.0078125 C 2.273438 0.0742188 2 0.109375 1.679688 0.109375 Z "/>
</g>
</g>
</defs>
<g fill="rgb(100%, 100%, 100%)" fill-opacity="1">
<use xlink:href="#glyph-0-0" x="30" y="27.226562"/>
<use xlink:href="#glyph-0-1" x="36" y="27.226562"/>
<use xlink:href="#glyph-0-2" x="41" y="27.226562"/>
<use xlink:href="#glyph-0-3" x="43" y="27.226562"/>
<use xlink:href="#glyph-0-4" x="46" y="27.226562"/>
<use xlink:href="#glyph-0-5" x="48" y="27.226562"/>
<use xlink:href="#glyph-0-2" x="53" y="27.226562"/>
<use xlink:href="#glyph-0-6" x="55" y="27.226562"/>
<use xlink:href="#glyph-0-7" x="59" y="27.226562"/>
<use xlink:href="#glyph-0-8" x="61" y="27.226562"/>
<use xlink:href="#glyph-0-9" x="68" y="27.226562"/>
<use xlink:href="#glyph-0-10" x="72" y="27.226562"/>
<use xlink:href="#glyph-0-6" x="77" y="27.226562"/>
<use xlink:href="#glyph-0-2" x="81" y="27.226562"/>
<use xlink:href="#glyph-0-11" x="83" y="27.226562"/>
</g>
</svg>
