<?xml version="1.0" encoding="UTF-8"?>
<svg xmlns="http://www.w3.org/2000/svg" xmlns:xlink="http://www.w3.org/1999/xlink" width="854" height="480" viewBox="0 0 854 480">
<defs>
<g>
<g id="glyph-0-0">
<path d="M 3.355469 0.21875 C 2.773438 0.21875 2.222656 0.15625 1.703125 0.0273438 C 1.183594 -0.0976562 0.753906 -0.246094 0.417969 -0.417969 L 0.417969 -2.503906 L 0.621094 -2.503906 C 0.738281 -2.414062 0.871094 -2.316406 1.023438 -2.207031 C 1.171875 -2.097656 1.382812 -1.988281 1.648438 -1.867188 C 1.878906 -1.761719 2.140625 -1.667969 2.429688 -1.589844 C 2.71875 -1.511719 3.03125 -1.472656 3.371094 -1.472656 C 3.71875 -1.472656 4.027344 -1.527344 4.292969 -1.636719 C 4.558594 -1.746094 4.691406 -1.914062 4.691406 -2.152344 C 4.691406 -2.335938 4.628906 -2.472656 4.507812 -2.566406 C 4.382812 -2.660156 4.148438 -2.75 3.792969 -2.835938 C 3.605469 -2.882812 3.367188 -2.933594 3.082031 -2.988281 C 2.796875 -3.039062 2.542969 -3.101562 2.320312 -3.171875 C 1.699219 -3.367188 1.234375 -3.652344 0.921875 -4.03125 C 0.609375 -4.410156 0.453125 -4.90625 0.453125 -5.523438 C 0.453125 -5.875 0.53125 -6.207031 0.695312 -6.519531 C 0.855469 -6.832031 1.09375 -7.113281 1.410156 -7.355469 C 1.726562 -7.597656 2.113281 -7.785156 2.578125 -7.925781 C 3.039062 -8.066406 3.5625 -8.140625 4.148438 -8.140625 C 4.703125 -8.140625 5.210938 -8.082031 5.675781 -7.972656 C 6.144531 -7.863281 6.535156 -7.730469 6.855469 -7.574219 L 6.855469 -5.570312 L 6.65625 -5.570312 C 6.574219 -5.636719 6.4375 -5.726562 6.253906 -5.835938 C 6.074219 -5.945312 5.894531 -6.042969 5.71875 -6.121094 C 5.511719 -6.214844 5.28125 -6.292969 5.023438 -6.355469 C 4.769531 -6.414062 4.507812 -6.445312 4.238281 -6.445312 C 3.882812 -6.445312 3.578125 -6.386719 3.332031 -6.261719 C 3.085938 -6.140625 2.960938 -5.976562 2.960938 -5.777344 C 2.960938 -5.597656 3.023438 -5.457031 3.144531 -5.351562 C 3.269531 -5.25 3.535156 -5.148438 3.941406 -5.050781 C 4.152344 -4.996094 4.398438 -4.949219 4.671875 -4.898438 C 4.949219 -4.847656 5.210938 -4.78125 5.464844 -4.695312 C 6.035156 -4.515625 6.464844 -4.246094 6.761719 -3.890625 C 7.054688 -3.535156 7.199219 -3.0625 7.199219 -2.476562 C 7.199219 -2.105469 7.113281 -1.75 6.941406 -1.414062 C 6.765625 -1.078125 6.519531 -0.792969 6.199219 -0.5625 C 5.859375 -0.316406 5.460938 -0.121094 5.003906 0.015625 C 4.546875 0.152344 3.996094 0.21875 3.355469 0.21875 Z "/>
</g>
<g id="glyph-0-1">
<path d="M 5.3125 -2.066406 L 5.3125 -3.714844 C 4.890625 -3.675781 4.554688 -3.636719 4.296875 -3.609375 C 4.035156 -3.578125 3.78125 -3.515625 3.535156 -3.425781 C 3.316406 -3.351562 3.148438 -3.238281 3.027344 -3.085938 C 2.910156 -2.933594 2.847656 -2.730469 2.847656 -2.476562 C 2.847656 -2.105469 2.949219 -1.847656 3.148438 -1.710938 C 3.347656 -1.570312 3.644531 -1.503906 4.035156 -1.503906 C 4.25 -1.503906 4.472656 -1.550781 4.695312 -1.648438 C 4.921875 -1.75 5.128906 -1.886719 5.3125 -2.066406 M 5.3125 -0.839844 C 5.140625 -0.699219 4.988281 -0.570312 4.855469 -0.457031 C 4.722656 -0.34375 4.542969 -0.234375 4.316406 -0.121094 C 4.09375 -0.0117188 3.878906 0.0703125 3.671875 0.125 C 3.460938 0.183594 3.167969 0.210938 2.792969 0.210938 C 2.09375 0.210938 1.511719 -0.0234375 1.046875 -0.492188 C 0.585938 -0.964844 0.351562 -1.554688 0.351562 -2.269531 C 0.351562 -2.859375 0.46875 -3.332031 0.707031 -3.695312 C 0.941406 -4.058594 1.277344 -4.34375 1.722656 -4.554688 C 2.167969 -4.773438 2.703125 -4.921875 3.320312 -5.007812 C 3.941406 -5.09375 4.609375 -5.15625 5.324219 -5.203125 L 5.324219 -5.246094 C 5.324219 -5.683594 5.164062 -5.988281 4.839844 -6.152344 C 4.519531 -6.320312 4.035156 -6.402344 3.390625 -6.402344 C 3.101562 -6.402344 2.761719 -6.351562 2.371094 -6.246094 C 1.980469 -6.140625 1.597656 -6.003906 1.226562 -5.839844 L 1.015625 -5.839844 L 1.015625 -7.75 C 1.261719 -7.820312 1.65625 -7.90625 2.199219 -8 C 2.746094 -8.097656 3.296875 -8.144531 3.851562 -8.144531 C 5.214844 -8.144531 6.207031 -7.917969 6.832031 -7.464844 C 7.453125 -7.011719 7.765625 -6.320312 7.765625 -5.386719 L 7.765625 0 L 5.3125 0 Z "/>
</g>
<g id="glyph-0-2">
<path d="M 12.746094 -7.921875 L 10.429688 0 L 7.808594 0 L 6.417969 -5.121094 L 5.023438 0 L 2.398438 0 L 0.105469 -7.921875 L 2.703125 -7.921875 L 3.914062 -2.679688 L 5.417969 -7.921875 L 7.597656 -7.921875 L 9.011719 -2.679688 L 10.207031 -7.921875 Z "/>
</g>
<g id="glyph-0-3">
<path d="M 8.335938 -7.921875 L 4.335938 2.90625 L 1.6875 2.90625 L 2.882812 -0.191406 L -0.0195312 -7.921875 L 2.574219 -7.921875 L 4.238281 -2.957031 L 5.796875 -7.921875 Z "/>
</g>
<g id="glyph-0-4">
<path d="M 5 0.210938 C 3.503906 0.210938 2.359375 -0.144531 1.5625 -0.859375 C 0.765625 -1.574219 0.367188 -2.59375 0.367188 -3.914062 C 0.367188 -5.207031 0.738281 -6.238281 1.480469 -7.011719 C 2.222656 -7.78125 3.261719 -8.167969 4.597656 -8.167969 C 5.8125 -8.167969 6.722656 -7.839844 7.335938 -7.1875 C 7.945312 -6.53125 8.25 -5.597656 8.25 -4.378906 L 8.25 -3.492188 L 2.84375 -3.492188 C 2.867188 -3.125 2.941406 -2.816406 3.074219 -2.570312 C 3.207031 -2.324219 3.378906 -2.128906 3.597656 -1.980469 C 3.808594 -1.835938 4.054688 -1.730469 4.335938 -1.667969 C 4.621094 -1.605469 4.925781 -1.574219 5.261719 -1.574219 C 5.546875 -1.574219 5.832031 -1.605469 6.109375 -1.667969 C 6.386719 -1.730469 6.640625 -1.816406 6.871094 -1.917969 C 7.070312 -2.007812 7.257812 -2.105469 7.429688 -2.207031 C 7.601562 -2.3125 7.742188 -2.402344 7.851562 -2.484375 L 8.109375 -2.484375 L 8.109375 -0.445312 C 7.910156 -0.363281 7.722656 -0.289062 7.558594 -0.222656 C 7.390625 -0.152344 7.160156 -0.0859375 6.871094 -0.015625 C 6.601562 0.0546875 6.324219 0.113281 6.039062 0.152344 C 5.757812 0.191406 5.410156 0.210938 5 0.210938 M 5.820312 -4.980469 C 5.804688 -5.5 5.683594 -5.898438 5.457031 -6.171875 C 5.226562 -6.445312 4.878906 -6.582031 4.40625 -6.582031 C 3.929688 -6.582031 3.554688 -6.4375 3.28125 -6.148438 C 3.011719 -5.863281 2.863281 -5.472656 2.835938 -4.980469 Z "/>
</g>
<g id="glyph-0-5">
<path d="M 6.261719 -5.585938 L 6.058594 -5.585938 C 5.964844 -5.617188 5.828125 -5.644531 5.648438 -5.660156 C 5.46875 -5.675781 5.273438 -5.683594 5.058594 -5.683594 C 4.796875 -5.683594 4.527344 -5.648438 4.242188 -5.570312 C 3.957031 -5.496094 3.679688 -5.40625 3.414062 -5.304688 L 3.414062 0 L 0.945312 0 L 0.945312 -7.921875 L 3.414062 -7.921875 L 3.414062 -6.785156 C 3.527344 -6.886719 3.683594 -7.019531 3.882812 -7.175781 C 4.082031 -7.332031 4.265625 -7.460938 4.429688 -7.554688 C 4.609375 -7.660156 4.816406 -7.753906 5.054688 -7.832031 C 5.289062 -7.910156 5.515625 -7.949219 5.726562 -7.949219 C 5.808594 -7.949219 5.894531 -7.945312 5.996094 -7.941406 C 6.09375 -7.9375 6.183594 -7.929688 6.261719 -7.921875 Z "/>
</g>
<g id="glyph-0-6">
<path d="M 3.503906 0 L 1.007812 0 L 1.007812 -2.773438 L 3.503906 -2.773438 Z "/>
</g>
<g id="glyph-0-7">
<path d="M 3.414062 0 L 0.945312 0 L 0.945312 -7.921875 L 3.414062 -7.921875 L 3.414062 0 M 3.484375 -9.046875 L 0.875 -9.046875 L 0.875 -10.972656 L 3.484375 -10.972656 Z "/>
</g>
<g id="glyph-0-8">
<path d="M 8.363281 0 L 5.882812 0 L 5.882812 -3.929688 C 5.882812 -4.25 5.867188 -4.566406 5.84375 -4.882812 C 5.816406 -5.203125 5.769531 -5.433594 5.699219 -5.585938 C 5.613281 -5.765625 5.492188 -5.890625 5.332031 -5.96875 C 5.171875 -6.046875 4.957031 -6.085938 4.691406 -6.085938 C 4.488281 -6.085938 4.285156 -6.050781 4.078125 -5.972656 C 3.871094 -5.898438 3.648438 -5.777344 3.414062 -5.613281 L 3.414062 0 L 0.945312 0 L 0.945312 -7.921875 L 3.414062 -7.921875 L 3.414062 -7.046875 C 3.816406 -7.390625 4.210938 -7.65625 4.59375 -7.851562 C 4.976562 -8.042969 5.402344 -8.140625 5.867188 -8.140625 C 6.675781 -8.140625 7.292969 -7.882812 7.722656 -7.375 C 8.152344 -6.863281 8.363281 -6.125 8.363281 -5.15625 Z "/>
</g>
<g id="glyph-0-9">
<path d="M 6.007812 -9.113281 L 5.820312 -9.113281 C 5.722656 -9.140625 5.578125 -9.175781 5.378906 -9.222656 C 5.179688 -9.265625 4.988281 -9.289062 4.808594 -9.289062 C 4.3125 -9.289062 3.972656 -9.195312 3.789062 -9.011719 C 3.609375 -8.828125 3.519531 -8.488281 3.519531 -7.984375 L 3.519531 -7.921875 L 5.480469 -7.921875 L 5.480469 -6.199219 L 3.605469 -6.199219 L 3.605469 0 L 1.136719 0 L 1.136719 -6.199219 L 0.148438 -6.199219 L 0.148438 -7.921875 L 1.136719 -7.921875 L 1.136719 -8.140625 C 1.136719 -9.109375 1.390625 -9.832031 1.898438 -10.316406 C 2.40625 -10.800781 3.171875 -11.042969 4.203125 -11.042969 C 4.5625 -11.042969 4.894531 -11.03125 5.203125 -11.003906 C 5.515625 -10.980469 5.785156 -10.945312 6.007812 -10.902344 Z "/>
</g>
<g id="glyph-0-10">
<path d="M 3.414062 0 L 0.945312 0 L 0.945312 -10.972656 L 3.414062 -10.972656 Z "/>
</g>
<g id="glyph-0-11">
<path d="M 3.976562 0.15625 C 2.972656 0.15625 2.238281 -0.0507812 1.78125 -0.464844 C 1.324219 -0.878906 1.09375 -1.554688 1.09375 -2.496094 L 1.09375 -6.199219 L 0.148438 -6.199219 L 0.148438 -7.921875 L 1.09375 -7.921875 L 1.09375 -10.183594 L 3.5625 -10.183594 L 3.5625 -7.921875 L 5.9375 -7.921875 L 5.9375 -6.199219 L 3.5625 -6.199219 L 3.5625 -3.390625 C 3.5625 -3.113281 3.5625 -2.871094 3.570312 -2.664062 C 3.574219 -2.460938 3.609375 -2.273438 3.679688 -2.109375 C 3.746094 -1.945312 3.863281 -1.8125 4.03125 -1.71875 C 4.199219 -1.621094 4.441406 -1.574219 4.761719 -1.574219 C 4.890625 -1.574219 5.066406 -1.601562 5.277344 -1.65625 C 5.492188 -1.714844 5.640625 -1.765625 5.726562 -1.8125 L 5.9375 -1.8125 L 5.9375 -0.0703125 C 5.671875 0 5.386719 0.0546875 5.085938 0.09375 C 4.785156 0.136719 4.414062 0.15625 3.976562 0.15625 Z "/>
</g>
<g id="glyph-0-12">
<path d="M 10.410156 0 L 10.410156 -3.957031 C 10.410156 -4.347656 10.402344 -4.675781 10.390625 -4.945312 C 10.375 -5.210938 10.332031 -5.429688 10.261719 -5.601562 C 10.191406 -5.769531 10.082031 -5.890625 9.933594 -5.96875 C 9.785156 -6.046875 9.578125 -6.085938 9.308594 -6.085938 C 9.121094 -6.085938 8.9375 -6.046875 8.753906 -5.964844 C 8.570312 -5.878906 8.371094 -5.765625 8.152344 -5.613281 L 8.152344 0 L 5.671875 0 L 5.671875 -3.957031 C 5.671875 -4.34375 5.664062 -4.671875 5.644531 -4.941406 C 5.628906 -5.210938 5.585938 -5.429688 5.515625 -5.601562 C 5.445312 -5.769531 5.335938 -5.890625 5.1875 -5.96875 C 5.039062 -6.046875 4.832031 -6.085938 4.570312 -6.085938 C 4.367188 -6.085938 4.171875 -6.039062 3.976562 -5.945312 C 3.785156 -5.851562 3.597656 -5.742188 3.414062 -5.613281 L 3.414062 0 L 0.945312 0 L 0.945312 -7.921875 L 3.414062 -7.921875 L 3.414062 -7.046875 C 3.816406 -7.390625 4.199219 -7.65625 4.554688 -7.851562 C 4.914062 -8.042969 5.316406 -8.140625 5.761719 -8.140625 C 6.246094 -8.140625 6.671875 -8.023438 7.039062 -7.792969 C 7.40625 -7.5625 7.683594 -7.21875 7.878906 -6.761719 C 8.351562 -7.207031 8.800781 -7.546875 9.222656 -7.78125 C 9.640625 -8.019531 10.070312 -8.140625 10.5 -8.140625 C 10.867188 -8.140625 11.199219 -8.082031 11.488281 -7.960938 C 11.78125 -7.84375 12.027344 -7.667969 12.230469 -7.433594 C 12.449219 -7.179688 12.617188 -6.878906 12.726562 -6.527344 C 12.835938 -6.175781 12.890625 -5.71875 12.890625 -5.15625 L 12.890625 0 Z "/>
</g>
</g>
</defs>
<g fill="rgb(0%, 96.078431%, 100%)" fill-opacity="1">
<use xlink:href="#glyph-0-0" x="30" y="34.450195"/>
<use xlink:href="#glyph-0-1" x="37" y="34.450195"/>
<use xlink:href="#glyph-0-2" x="46" y="34.450195"/>
<use xlink:href="#glyph-0-3" x="59" y="34.450195"/>
<use xlink:href="#glyph-0-4" x="67" y="34.450195"/>
<use xlink:href="#glyph-0-5" x="76" y="34.450195"/>
<use xlink:href="#glyph-0-6" x="82" y="34.450195"/>
<use xlink:href="#glyph-0-7" x="87" y="34.450195"/>
<use xlink:href="#glyph-0-8" x="91" y="34.450195"/>
<use xlink:href="#glyph-0-9" x="100" y="34.450195"/>
<use xlink:href="#glyph-0-7" x="106" y="34.450195"/>
<use xlink:href="#glyph-0-10" x="110" y="34.450195"/>
<use xlink:href="#glyph-0-10" x="114" y="34.450195"/>
<use xlink:href="#glyph-0-6" x="118" y="34.450195"/>
<use xlink:href="#glyph-0-0" x="123" y="34.450195"/>
<use xlink:href="#glyph-0-3" x="130" y="34.450195"/>
<use xlink:href="#glyph-0-0" x="138" y="34.450195"/>
<use xlink:href="#glyph-0-11" x="145" y="34.450195"/>
<use xlink:href="#glyph-0-4" x="151" y="34.450195"/>
<use xlink:href="#glyph-0-12" x="160" y="34.450195"/>
<use xlink:href="#glyph-0-0" x="174" y="34.450195"/>
</g>
</svg>
