<?xml version="1.0" encoding="UTF-8"?>
<svg xmlns="http://www.w3.org/2000/svg" xmlns:xlink="http://www.w3.org/1999/xlink" width="854" height="480" viewBox="0 0 854 480">
<defs>
<g>
<g id="glyph-0-0">
<path d="M 4.585938 -1.710938 C 4.585938 -1.4375 4.535156 -1.183594 4.433594 -0.957031 C 4.332031 -0.730469 4.179688 -0.535156 3.984375 -0.375 C 3.785156 -0.214844 3.546875 -0.09375 3.277344 -0.0078125 C 3.007812 0.0742188 2.679688 0.117188 2.292969 0.117188 C 1.851562 0.117188 1.476562 0.0820312 1.160156 0.0078125 C 0.84375 -0.0664062 0.589844 -0.148438 0.390625 -0.238281 L 0.390625 -1.464844 L 0.527344 -1.464844 C 0.734375 -1.335938 0.980469 -1.21875 1.257812 -1.125 C 1.539062 -1.027344 1.792969 -0.980469 2.023438 -0.980469 C 2.160156 -0.980469 2.308594 -0.992188 2.46875 -1.015625 C 2.632812 -1.039062 2.765625 -1.09375 2.875 -1.171875 C 2.960938 -1.238281 3.03125 -1.316406 3.082031 -1.40625 C 3.132812 -1.5 3.160156 -1.628906 3.160156 -1.800781 C 3.160156 -1.96875 3.121094 -2.09375 3.050781 -2.183594 C 2.976562 -2.273438 2.878906 -2.339844 2.757812 -2.382812 C 2.636719 -2.425781 2.488281 -2.449219 2.320312 -2.453125 C 2.152344 -2.457031 2 -2.460938 1.871094 -2.460938 L 1.628906 -2.460938 L 1.628906 -3.457031 L 1.851562 -3.457031 C 2.023438 -3.457031 2.183594 -3.464844 2.328125 -3.480469 C 2.472656 -3.492188 2.59375 -3.523438 2.695312 -3.570312 C 2.796875 -3.617188 2.875 -3.683594 2.933594 -3.769531 C 2.992188 -3.855469 3.019531 -3.972656 3.019531 -4.121094 C 3.019531 -4.234375 2.992188 -4.328125 2.9375 -4.398438 C 2.886719 -4.472656 2.820312 -4.527344 2.742188 -4.570312 C 2.652344 -4.613281 2.542969 -4.644531 2.421875 -4.660156 C 2.300781 -4.675781 2.199219 -4.683594 2.113281 -4.683594 C 1.972656 -4.683594 1.832031 -4.664062 1.6875 -4.632812 C 1.542969 -4.601562 1.402344 -4.558594 1.265625 -4.507812 C 1.160156 -4.46875 1.046875 -4.414062 0.929688 -4.351562 C 0.8125 -4.285156 0.726562 -4.238281 0.671875 -4.203125 L 0.554688 -4.203125 L 0.554688 -5.414062 C 0.75 -5.5 1.011719 -5.578125 1.34375 -5.65625 C 1.671875 -5.734375 2.011719 -5.773438 2.355469 -5.773438 C 2.691406 -5.773438 2.984375 -5.742188 3.230469 -5.683594 C 3.476562 -5.625 3.6875 -5.542969 3.863281 -5.429688 C 4.054688 -5.3125 4.199219 -5.160156 4.296875 -4.976562 C 4.390625 -4.792969 4.4375 -4.585938 4.4375 -4.355469 C 4.4375 -4.035156 4.347656 -3.753906 4.160156 -3.511719 C 3.972656 -3.269531 3.730469 -3.113281 3.425781 -3.042969 L 3.425781 -2.988281 C 3.558594 -2.96875 3.691406 -2.933594 3.820312 -2.886719 C 3.945312 -2.839844 4.070312 -2.757812 4.191406 -2.652344 C 4.304688 -2.550781 4.402344 -2.425781 4.476562 -2.269531 C 4.550781 -2.113281 4.585938 -1.929688 4.585938 -1.710938 Z "/>
</g>
<g id="glyph-0-1">
<path d="M 4.714844 0 L 3.160156 0 L 2.347656 -1.226562 L 1.511719 0 L -0.015625 0 L 1.554688 -2.128906 L 0.0117188 -4.265625 L 1.570312 -4.265625 L 2.367188 -3.0625 L 3.167969 -4.265625 L 4.699219 -4.265625 L 3.152344 -2.164062 Z "/>
</g>
<g id="glyph-0-2">
</g>
<g id="glyph-0-3">
<path d="M 2.601562 0.113281 C 2.25 0.113281 1.925781 0.0703125 1.636719 -0.0195312 C 1.34375 -0.109375 1.089844 -0.246094 0.875 -0.429688 C 0.660156 -0.613281 0.496094 -0.847656 0.375 -1.125 C 0.257812 -1.40625 0.199219 -1.734375 0.199219 -2.113281 C 0.199219 -2.523438 0.261719 -2.871094 0.390625 -3.15625 C 0.519531 -3.441406 0.695312 -3.675781 0.914062 -3.863281 C 1.128906 -4.039062 1.378906 -4.171875 1.664062 -4.253906 C 1.953125 -4.339844 2.25 -4.382812 2.5625 -4.382812 C 2.796875 -4.382812 3.035156 -4.355469 3.269531 -4.300781 C 3.503906 -4.246094 3.742188 -4.160156 3.980469 -4.039062 L 3.980469 -2.902344 L 3.808594 -2.902344 C 3.753906 -2.953125 3.691406 -3.007812 3.613281 -3.070312 C 3.535156 -3.128906 3.453125 -3.183594 3.359375 -3.234375 C 3.265625 -3.289062 3.15625 -3.332031 3.035156 -3.371094 C 2.914062 -3.40625 2.777344 -3.425781 2.628906 -3.425781 C 2.289062 -3.425781 2.027344 -3.308594 1.839844 -3.070312 C 1.652344 -2.832031 1.5625 -2.515625 1.5625 -2.113281 C 1.5625 -1.6875 1.660156 -1.367188 1.859375 -1.160156 C 2.058594 -0.949219 2.320312 -0.84375 2.652344 -0.84375 C 2.816406 -0.84375 2.964844 -0.863281 3.089844 -0.898438 C 3.21875 -0.9375 3.328125 -0.984375 3.417969 -1.035156 C 3.507812 -1.089844 3.582031 -1.144531 3.644531 -1.203125 C 3.707031 -1.257812 3.761719 -1.308594 3.808594 -1.355469 L 3.980469 -1.355469 L 3.980469 -0.214844 C 3.902344 -0.183594 3.816406 -0.144531 3.714844 -0.101562 C 3.617188 -0.0585938 3.515625 -0.0234375 3.410156 0.00390625 C 3.28125 0.0390625 3.160156 0.0664062 3.046875 0.0859375 C 2.933594 0.105469 2.785156 0.113281 2.601562 0.113281 Z "/>
</g>
<g id="glyph-0-4">
<path d="M 4.503906 0 L 3.167969 0 L 3.167969 -2.113281 C 3.167969 -2.289062 3.160156 -2.457031 3.144531 -2.628906 C 3.132812 -2.800781 3.105469 -2.925781 3.070312 -3.007812 C 3.023438 -3.105469 2.957031 -3.171875 2.871094 -3.214844 C 2.785156 -3.257812 2.667969 -3.277344 2.523438 -3.277344 C 2.417969 -3.277344 2.304688 -3.257812 2.195312 -3.214844 C 2.082031 -3.175781 1.964844 -3.113281 1.839844 -3.023438 L 1.839844 0 L 0.507812 0 L 0.507812 -5.910156 L 1.839844 -5.910156 L 1.839844 -3.792969 C 2.054688 -3.980469 2.269531 -4.121094 2.472656 -4.226562 C 2.679688 -4.332031 2.910156 -4.382812 3.160156 -4.382812 C 3.59375 -4.382812 3.929688 -4.246094 4.160156 -3.96875 C 4.390625 -3.695312 4.503906 -3.296875 4.503906 -2.777344 Z "/>
</g>
<g id="glyph-0-5">
<path d="M 2.691406 0.113281 C 1.886719 0.113281 1.269531 -0.078125 0.839844 -0.464844 C 0.410156 -0.847656 0.199219 -1.394531 0.199219 -2.109375 C 0.199219 -2.804688 0.398438 -3.359375 0.796875 -3.773438 C 1.199219 -4.191406 1.757812 -4.398438 2.476562 -4.398438 C 3.128906 -4.398438 3.621094 -4.222656 3.949219 -3.871094 C 4.277344 -3.519531 4.441406 -3.015625 4.441406 -2.359375 L 4.441406 -1.878906 L 1.53125 -1.878906 C 1.542969 -1.683594 1.585938 -1.515625 1.65625 -1.382812 C 1.726562 -1.25 1.820312 -1.144531 1.9375 -1.066406 C 2.050781 -0.988281 2.183594 -0.933594 2.335938 -0.898438 C 2.488281 -0.863281 2.652344 -0.847656 2.832031 -0.847656 C 2.988281 -0.847656 3.140625 -0.863281 3.289062 -0.898438 C 3.4375 -0.933594 3.574219 -0.976562 3.699219 -1.03125 C 3.808594 -1.082031 3.910156 -1.132812 4 -1.1875 C 4.09375 -1.246094 4.167969 -1.292969 4.226562 -1.335938 L 4.367188 -1.335938 L 4.367188 -0.238281 C 4.257812 -0.195312 4.160156 -0.15625 4.070312 -0.121094 C 3.980469 -0.0820312 3.855469 -0.046875 3.699219 -0.0078125 C 3.554688 0.03125 3.40625 0.0585938 3.253906 0.0820312 C 3.097656 0.101562 2.914062 0.113281 2.691406 0.113281 M 3.132812 -2.679688 C 3.125 -2.960938 3.058594 -3.175781 2.9375 -3.324219 C 2.816406 -3.46875 2.625 -3.542969 2.375 -3.542969 C 2.113281 -3.542969 1.914062 -3.464844 1.769531 -3.3125 C 1.621094 -3.15625 1.542969 -2.945312 1.527344 -2.679688 Z "/>
</g>
<g id="glyph-0-6">
<path d="M 2.859375 -1.113281 L 2.859375 -2 C 2.632812 -1.976562 2.453125 -1.957031 2.3125 -1.941406 C 2.171875 -1.925781 2.035156 -1.894531 1.902344 -1.84375 C 1.785156 -1.804688 1.695312 -1.742188 1.632812 -1.660156 C 1.566406 -1.578125 1.535156 -1.46875 1.535156 -1.332031 C 1.535156 -1.132812 1.589844 -0.996094 1.695312 -0.921875 C 1.804688 -0.847656 1.960938 -0.808594 2.171875 -0.808594 C 2.289062 -0.808594 2.40625 -0.835938 2.527344 -0.886719 C 2.652344 -0.941406 2.761719 -1.015625 2.859375 -1.113281 M 2.859375 -0.453125 C 2.769531 -0.375 2.6875 -0.308594 2.613281 -0.246094 C 2.542969 -0.1875 2.445312 -0.125 2.324219 -0.0664062 C 2.207031 -0.0078125 2.089844 0.0390625 1.976562 0.0664062 C 1.863281 0.0976562 1.707031 0.113281 1.503906 0.113281 C 1.125 0.113281 0.8125 -0.0117188 0.5625 -0.265625 C 0.316406 -0.519531 0.191406 -0.839844 0.191406 -1.222656 C 0.191406 -1.539062 0.253906 -1.796875 0.378906 -1.988281 C 0.507812 -2.183594 0.6875 -2.339844 0.925781 -2.453125 C 1.167969 -2.570312 1.453125 -2.652344 1.789062 -2.695312 C 2.121094 -2.742188 2.480469 -2.777344 2.867188 -2.800781 L 2.867188 -2.824219 C 2.867188 -3.0625 2.78125 -3.222656 2.605469 -3.3125 C 2.433594 -3.402344 2.171875 -3.449219 1.828125 -3.449219 C 1.667969 -3.449219 1.484375 -3.417969 1.277344 -3.363281 C 1.066406 -3.304688 0.859375 -3.234375 0.660156 -3.144531 L 0.546875 -3.144531 L 0.546875 -4.171875 C 0.679688 -4.210938 0.890625 -4.257812 1.183594 -4.308594 C 1.476562 -4.359375 1.773438 -4.386719 2.074219 -4.386719 C 2.808594 -4.386719 3.34375 -4.265625 3.679688 -4.019531 C 4.011719 -3.773438 4.179688 -3.402344 4.179688 -2.902344 L 4.179688 0 L 2.859375 0 Z "/>
</g>
<g id="glyph-0-7">
<path d="M 4.691406 -2.191406 C 4.691406 -1.511719 4.515625 -0.960938 4.171875 -0.542969 C 3.824219 -0.125 3.398438 0.0820312 2.894531 0.0820312 C 2.679688 0.0820312 2.496094 0.0585938 2.339844 0.0117188 C 2.183594 -0.0351562 2.015625 -0.113281 1.839844 -0.210938 L 1.839844 1.566406 L 0.507812 1.566406 L 0.507812 -4.265625 L 1.839844 -4.265625 L 1.839844 -3.820312 C 2.03125 -3.988281 2.230469 -4.121094 2.433594 -4.226562 C 2.636719 -4.332031 2.871094 -4.382812 3.136719 -4.382812 C 3.628906 -4.382812 4.011719 -4.1875 4.285156 -3.792969 C 4.554688 -3.402344 4.691406 -2.867188 4.691406 -2.191406 M 3.332031 -2.164062 C 3.332031 -2.578125 3.265625 -2.882812 3.136719 -3.070312 C 3.011719 -3.253906 2.8125 -3.347656 2.539062 -3.347656 C 2.421875 -3.347656 2.304688 -3.332031 2.183594 -3.292969 C 2.066406 -3.253906 1.953125 -3.199219 1.839844 -3.121094 L 1.839844 -0.976562 C 1.910156 -0.945312 1.988281 -0.925781 2.070312 -0.910156 C 2.15625 -0.898438 2.257812 -0.890625 2.375 -0.890625 C 2.699219 -0.890625 2.9375 -1 3.09375 -1.210938 C 3.25 -1.421875 3.332031 -1.738281 3.332031 -2.164062 Z "/>
</g>
<g id="glyph-0-8">
<path d="M 3.371094 -3.007812 L 3.261719 -3.007812 C 3.210938 -3.023438 3.136719 -3.039062 3.042969 -3.046875 C 2.945312 -3.054688 2.839844 -3.0625 2.722656 -3.0625 C 2.582031 -3.0625 2.4375 -3.039062 2.285156 -3 C 2.132812 -2.960938 1.980469 -2.910156 1.839844 -2.855469 L 1.839844 0 L 0.507812 0 L 0.507812 -4.265625 L 1.839844 -4.265625 L 1.839844 -3.652344 C 1.898438 -3.707031 1.984375 -3.777344 2.089844 -3.863281 C 2.199219 -3.949219 2.296875 -4.015625 2.386719 -4.066406 C 2.480469 -4.125 2.59375 -4.175781 2.722656 -4.21875 C 2.847656 -4.257812 2.96875 -4.28125 3.082031 -4.28125 C 3.125 -4.28125 3.175781 -4.277344 3.226562 -4.277344 C 3.28125 -4.273438 3.328125 -4.269531 3.371094 -4.265625 Z "/>
</g>
</g>
</defs>
<g fill="rgb(100%, 84.313725%, 0%)" fill-opacity="1">
<use xlink:href="#glyph-0-0" x="30" y="27.78125"/>
<use xlink:href="#glyph-0-0" x="35" y="27.78125"/>
<use xlink:href="#glyph-0-1" x="40" y="27.78125"/>
<use xlink:href="#glyph-0-2" x="45" y="27.78125"/>
<use xlink:href="#glyph-0-3" x="47" y="27.78125"/>
<use xlink:href="#glyph-0-4" x="51" y="27.78125"/>
<use xlink:href="#glyph-0-5" x="56" y="27.78125"/>
<use xlink:href="#glyph-0-6" x="61" y="27.78125"/>
<use xlink:href="#glyph-0-7" x="66" y="27.78125"/>
<use xlink:href="#glyph-0-5" x="71" y="27.78125"/>
<use xlink:href="#glyph-0-8" x="76" y="27.78125"/>
</g>
</svg>
