<?xml version="1.0" encoding="UTF-8"?>
<svg xmlns="http://www.w3.org/2000/svg" xmlns:xlink="http://www.w3.org/1999/xlink" width="854" height="480" viewBox="0 0 854 480">
<defs>
<g>
<g id="glyph-0-0">
<path d="M 0.460938 0 L 0.460938 -4.441406 L 3.464844 -4.441406 L 3.464844 -3.59375 L 1.570312 -3.59375 L 1.570312 -2.816406 L 3.316406 -2.816406 L 3.316406 -1.96875 L 1.570312 -1.96875 L 1.570312 -0.847656 L 3.464844 -0.847656 L 3.464844 0 Z "/>
</g>
<g id="glyph-0-1">
<path d="M 3.707031 0 L 2.484375 0 L 1.84375 -0.964844 L 1.1875 0 L -0.0117188 0 L 1.21875 -1.675781 L 0.0078125 -3.351562 L 1.230469 -3.351562 L 1.859375 -2.40625 L 2.488281 -3.351562 L 3.691406 -3.351562 L 2.476562 -1.699219 Z "/>
</g>
<g id="glyph-0-2">
<path d="M 3.683594 -1.722656 C 3.683594 -1.1875 3.550781 -0.753906 3.277344 -0.425781 C 3.007812 -0.0976562 2.671875 0.0664062 2.273438 0.0664062 C 2.105469 0.0664062 1.960938 0.046875 1.839844 0.0078125 C 1.714844 -0.0273438 1.582031 -0.0859375 1.445312 -0.167969 L 1.445312 1.230469 L 0.398438 1.230469 L 0.398438 -3.351562 L 1.445312 -3.351562 L 1.445312 -3 C 1.597656 -3.132812 1.753906 -3.238281 1.914062 -3.320312 C 2.070312 -3.402344 2.253906 -3.441406 2.464844 -3.441406 C 2.851562 -3.441406 3.152344 -3.289062 3.367188 -2.980469 C 3.578125 -2.671875 3.683594 -2.253906 3.683594 -1.722656 M 2.617188 -1.699219 C 2.617188 -2.027344 2.566406 -2.261719 2.464844 -2.410156 C 2.367188 -2.558594 2.207031 -2.632812 1.996094 -2.632812 C 1.902344 -2.632812 1.808594 -2.617188 1.71875 -2.585938 C 1.625 -2.558594 1.535156 -2.511719 1.445312 -2.453125 L 1.445312 -0.765625 C 1.5 -0.742188 1.5625 -0.726562 1.628906 -0.714844 C 1.695312 -0.707031 1.773438 -0.703125 1.863281 -0.703125 C 2.121094 -0.703125 2.308594 -0.785156 2.433594 -0.949219 C 2.554688 -1.117188 2.617188 -1.367188 2.617188 -1.699219 Z "/>
</g>
<g id="glyph-0-3">
<path d="M 1.445312 0 L 0.398438 0 L 0.398438 -4.644531 L 1.445312 -4.644531 Z "/>
</g>
<g id="glyph-0-4">
<path d="M 3.617188 -1.675781 C 3.617188 -1.121094 3.464844 -0.6875 3.164062 -0.371094 C 2.863281 -0.0546875 2.4375 0.105469 1.886719 0.105469 C 1.339844 0.105469 0.914062 -0.0546875 0.609375 -0.371094 C 0.308594 -0.6875 0.15625 -1.121094 0.15625 -1.675781 C 0.15625 -2.230469 0.308594 -2.667969 0.609375 -2.980469 C 0.914062 -3.296875 1.339844 -3.457031 1.886719 -3.457031 C 2.433594 -3.457031 2.859375 -3.296875 3.164062 -2.980469 C 3.464844 -2.660156 3.617188 -2.226562 3.617188 -1.675781 M 2.546875 -1.667969 C 2.546875 -1.867188 2.527344 -2.03125 2.496094 -2.164062 C 2.464844 -2.296875 2.417969 -2.402344 2.359375 -2.484375 C 2.296875 -2.566406 2.230469 -2.625 2.152344 -2.65625 C 2.074219 -2.691406 1.984375 -2.707031 1.886719 -2.707031 C 1.792969 -2.707031 1.707031 -2.691406 1.632812 -2.664062 C 1.554688 -2.632812 1.488281 -2.578125 1.421875 -2.496094 C 1.363281 -2.417969 1.316406 -2.3125 1.28125 -2.179688 C 1.246094 -2.042969 1.226562 -1.871094 1.226562 -1.667969 C 1.226562 -1.464844 1.242188 -1.296875 1.277344 -1.171875 C 1.3125 -1.042969 1.355469 -0.945312 1.410156 -0.867188 C 1.464844 -0.789062 1.535156 -0.734375 1.617188 -0.699219 C 1.699219 -0.664062 1.792969 -0.644531 1.894531 -0.644531 C 1.976562 -0.644531 2.0625 -0.664062 2.148438 -0.699219 C 2.234375 -0.734375 2.304688 -0.789062 2.355469 -0.859375 C 2.417969 -0.945312 2.464844 -1.046875 2.496094 -1.167969 C 2.527344 -1.289062 2.546875 -1.453125 2.546875 -1.667969 Z "/>
</g>
<g id="glyph-0-5">
<path d="M 2.648438 -2.363281 L 2.5625 -2.363281 C 2.523438 -2.378906 2.464844 -2.386719 2.390625 -2.394531 C 2.3125 -2.402344 2.230469 -2.40625 2.140625 -2.40625 C 2.03125 -2.40625 1.914062 -2.390625 1.792969 -2.355469 C 1.675781 -2.324219 1.558594 -2.289062 1.445312 -2.242188 L 1.445312 0 L 0.398438 0 L 0.398438 -3.351562 L 1.445312 -3.351562 L 1.445312 -2.871094 C 1.492188 -2.914062 1.558594 -2.96875 1.640625 -3.035156 C 1.726562 -3.101562 1.804688 -3.15625 1.875 -3.195312 C 1.949219 -3.242188 2.039062 -3.28125 2.136719 -3.3125 C 2.238281 -3.347656 2.332031 -3.363281 2.421875 -3.363281 C 2.457031 -3.363281 2.496094 -3.363281 2.535156 -3.359375 C 2.578125 -3.359375 2.617188 -3.355469 2.648438 -3.351562 Z "/>
</g>
<g id="glyph-0-6">
<path d="M 2.117188 0.0898438 C 1.484375 0.0898438 1 -0.0625 0.660156 -0.363281 C 0.324219 -0.667969 0.15625 -1.097656 0.15625 -1.65625 C 0.15625 -2.203125 0.3125 -2.640625 0.625 -2.964844 C 0.941406 -3.292969 1.378906 -3.457031 1.945312 -3.457031 C 2.457031 -3.457031 2.84375 -3.316406 3.101562 -3.039062 C 3.363281 -2.765625 3.492188 -2.367188 3.492188 -1.851562 L 3.492188 -1.476562 L 1.203125 -1.476562 C 1.210938 -1.320312 1.246094 -1.191406 1.300781 -1.085938 C 1.355469 -0.984375 1.429688 -0.898438 1.523438 -0.839844 C 1.609375 -0.777344 1.714844 -0.734375 1.835938 -0.707031 C 1.953125 -0.679688 2.085938 -0.664062 2.226562 -0.664062 C 2.347656 -0.664062 2.464844 -0.679688 2.582031 -0.707031 C 2.703125 -0.734375 2.808594 -0.769531 2.90625 -0.8125 C 2.992188 -0.847656 3.070312 -0.890625 3.144531 -0.933594 C 3.214844 -0.976562 3.273438 -1.015625 3.320312 -1.050781 L 3.429688 -1.050781 L 3.429688 -0.1875 C 3.347656 -0.152344 3.269531 -0.121094 3.195312 -0.09375 C 3.125 -0.0664062 3.03125 -0.0351562 2.90625 -0.0078125 C 2.792969 0.0234375 2.675781 0.046875 2.554688 0.0625 C 2.433594 0.0820312 2.289062 0.0898438 2.117188 0.0898438 M 2.460938 -2.105469 C 2.457031 -2.328125 2.40625 -2.496094 2.308594 -2.609375 C 2.210938 -2.726562 2.0625 -2.785156 1.863281 -2.785156 C 1.660156 -2.785156 1.503906 -2.722656 1.390625 -2.601562 C 1.273438 -2.480469 1.210938 -2.316406 1.199219 -2.105469 Z "/>
</g>
</g>
</defs>
<g fill="rgb(33.333333%, 33.333333%, 33.333333%)" fill-opacity="1">
<use xlink:href="#glyph-0-0" x="30" y="26.113281"/>
<use xlink:href="#glyph-0-1" x="34" y="26.113281"/>
<use xlink:href="#glyph-0-2" x="38" y="26.113281"/>
<use xlink:href="#glyph-0-3" x="42" y="26.113281"/>
<use xlink:href="#glyph-0-4" x="44" y="26.113281"/>
<use xlink:href="#glyph-0-5" x="48" y="26.113281"/>
<use xlink:href="#glyph-0-6" x="51" y="26.113281"/>
<use xlink:href="#glyph-0-5" x="55" y="26.113281"/>
</g>
</svg>
