<?xml version="1.0" encoding="UTF-8"?>
<svg xmlns="http://www.w3.org/2000/svg" xmlns:xlink="http://www.w3.org/1999/xlink" width="854" height="480" viewBox="0 0 854 480">
<defs>
<g>
<g id="glyph-0-0">
<path d="M 1.6875 0.0820312 C 1.367188 0.0820312 1.09375 0.046875 0.867188 -0.0195312 C 0.640625 -0.0859375 0.429688 -0.167969 0.230469 -0.265625 L 0.230469 -1.003906 L 0.273438 -1.003906 C 0.464844 -0.824219 0.6875 -0.679688 0.933594 -0.582031 C 1.179688 -0.480469 1.417969 -0.429688 1.648438 -0.429688 C 1.972656 -0.429688 2.21875 -0.496094 2.386719 -0.632812 C 2.554688 -0.769531 2.636719 -0.949219 2.636719 -1.171875 C 2.636719 -1.351562 2.59375 -1.492188 2.507812 -1.605469 C 2.417969 -1.714844 2.28125 -1.800781 2.089844 -1.851562 C 1.953125 -1.894531 1.824219 -1.925781 1.710938 -1.953125 C 1.597656 -1.976562 1.457031 -2.011719 1.285156 -2.054688 C 1.132812 -2.09375 0.996094 -2.144531 0.875 -2.207031 C 0.753906 -2.269531 0.644531 -2.351562 0.550781 -2.449219 C 0.460938 -2.546875 0.390625 -2.660156 0.339844 -2.792969 C 0.289062 -2.925781 0.261719 -3.078125 0.261719 -3.253906 C 0.261719 -3.613281 0.402344 -3.914062 0.683594 -4.15625 C 0.964844 -4.402344 1.320312 -4.523438 1.757812 -4.523438 C 2.007812 -4.523438 2.242188 -4.5 2.464844 -4.449219 C 2.683594 -4.398438 2.890625 -4.328125 3.078125 -4.238281 L 3.078125 -3.53125 L 3.035156 -3.53125 C 2.894531 -3.660156 2.710938 -3.773438 2.492188 -3.867188 C 2.269531 -3.964844 2.039062 -4.011719 1.796875 -4.011719 C 1.523438 -4.011719 1.300781 -3.949219 1.128906 -3.820312 C 0.960938 -3.691406 0.878906 -3.523438 0.878906 -3.316406 C 0.878906 -3.125 0.925781 -2.976562 1.027344 -2.863281 C 1.125 -2.753906 1.269531 -2.671875 1.460938 -2.621094 C 1.585938 -2.585938 1.738281 -2.546875 1.917969 -2.503906 C 2.097656 -2.460938 2.25 -2.421875 2.367188 -2.386719 C 2.675781 -2.292969 2.898438 -2.152344 3.039062 -1.964844 C 3.183594 -1.773438 3.253906 -1.542969 3.253906 -1.265625 C 3.253906 -1.09375 3.21875 -0.921875 3.144531 -0.75 C 3.074219 -0.582031 2.976562 -0.441406 2.847656 -0.320312 C 2.707031 -0.191406 2.542969 -0.09375 2.363281 -0.0234375 C 2.183594 0.046875 1.960938 0.0820312 1.6875 0.0820312 Z "/>
</g>
<g id="glyph-0-1">
<path d="M 1.414062 0.0664062 C 1.109375 0.0664062 0.871094 -0.0195312 0.699219 -0.195312 C 0.527344 -0.371094 0.441406 -0.644531 0.441406 -1.019531 L 0.441406 -2.867188 L 0.0625 -2.867188 L 0.0625 -3.332031 L 0.441406 -3.332031 L 0.441406 -4.289062 L 1.003906 -4.289062 L 1.003906 -3.332031 L 2.035156 -3.332031 L 2.035156 -2.867188 L 1.003906 -2.867188 L 1.003906 -1.28125 C 1.003906 -1.113281 1.003906 -0.984375 1.011719 -0.890625 C 1.015625 -0.800781 1.039062 -0.714844 1.082031 -0.636719 C 1.113281 -0.566406 1.167969 -0.515625 1.246094 -0.480469 C 1.320312 -0.445312 1.421875 -0.425781 1.550781 -0.425781 C 1.644531 -0.425781 1.730469 -0.441406 1.816406 -0.46875 C 1.902344 -0.492188 1.964844 -0.515625 2.003906 -0.535156 L 2.035156 -0.535156 L 2.035156 -0.03125 C 1.929688 0 1.824219 0.0234375 1.714844 0.0390625 C 1.605469 0.0585938 1.503906 0.0664062 1.414062 0.0664062 Z "/>
</g>
<g id="glyph-0-2">
<path d="M 2.269531 -0.820312 L 2.269531 -1.746094 C 2.132812 -1.734375 1.964844 -1.71875 1.761719 -1.695312 C 1.558594 -1.675781 1.394531 -1.644531 1.269531 -1.609375 C 1.117188 -1.5625 0.996094 -1.492188 0.898438 -1.398438 C 0.800781 -1.304688 0.75 -1.171875 0.75 -1.003906 C 0.75 -0.8125 0.804688 -0.667969 0.914062 -0.570312 C 1.019531 -0.472656 1.175781 -0.421875 1.382812 -0.421875 C 1.5625 -0.421875 1.722656 -0.460938 1.863281 -0.539062 C 2.007812 -0.613281 2.140625 -0.710938 2.269531 -0.820312 M 2.269531 -0.355469 C 2.222656 -0.320312 2.160156 -0.273438 2.085938 -0.214844 C 2.007812 -0.152344 1.933594 -0.105469 1.863281 -0.0703125 C 1.761719 -0.015625 1.667969 0.0234375 1.574219 0.0507812 C 1.480469 0.078125 1.351562 0.09375 1.183594 0.09375 C 1.046875 0.09375 0.917969 0.0664062 0.792969 0.015625 C 0.671875 -0.0351562 0.5625 -0.109375 0.46875 -0.203125 C 0.378906 -0.292969 0.308594 -0.40625 0.253906 -0.542969 C 0.199219 -0.675781 0.171875 -0.816406 0.171875 -0.964844 C 0.171875 -1.199219 0.222656 -1.394531 0.320312 -1.554688 C 0.417969 -1.71875 0.570312 -1.847656 0.78125 -1.941406 C 0.96875 -2.027344 1.191406 -2.085938 1.445312 -2.121094 C 1.699219 -2.152344 1.972656 -2.175781 2.269531 -2.191406 L 2.269531 -2.300781 C 2.269531 -2.433594 2.246094 -2.539062 2.207031 -2.617188 C 2.167969 -2.699219 2.113281 -2.761719 2.039062 -2.804688 C 1.96875 -2.851562 1.882812 -2.878906 1.777344 -2.894531 C 1.675781 -2.910156 1.570312 -2.917969 1.460938 -2.917969 C 1.328125 -2.917969 1.175781 -2.898438 1.003906 -2.859375 C 0.828125 -2.820312 0.652344 -2.765625 0.476562 -2.691406 L 0.445312 -2.691406 L 0.445312 -3.261719 C 0.546875 -3.292969 0.695312 -3.324219 0.890625 -3.359375 C 1.082031 -3.394531 1.273438 -3.414062 1.460938 -3.414062 C 1.691406 -3.414062 1.882812 -3.394531 2.039062 -3.359375 C 2.199219 -3.324219 2.339844 -3.257812 2.464844 -3.164062 C 2.585938 -3.074219 2.675781 -2.957031 2.734375 -2.8125 C 2.796875 -2.664062 2.824219 -2.488281 2.824219 -2.28125 L 2.824219 0 L 2.269531 0 Z "/>
</g>
<g id="glyph-0-3">
<path d="M 2.171875 -2.730469 L 2.140625 -2.730469 C 2.101562 -2.742188 2.054688 -2.75 2.007812 -2.753906 C 1.960938 -2.753906 1.90625 -2.757812 1.839844 -2.757812 C 1.691406 -2.757812 1.539062 -2.722656 1.390625 -2.660156 C 1.242188 -2.59375 1.101562 -2.496094 0.964844 -2.367188 L 0.964844 0 L 0.40625 0 L 0.40625 -3.332031 L 0.964844 -3.332031 L 0.964844 -2.835938 C 1.171875 -3.019531 1.351562 -3.144531 1.503906 -3.222656 C 1.65625 -3.296875 1.800781 -3.332031 1.945312 -3.332031 C 2.003906 -3.332031 2.046875 -3.332031 2.074219 -3.328125 C 2.105469 -3.324219 2.136719 -3.320312 2.171875 -3.316406 Z "/>
</g>
<g id="glyph-0-4">
</g>
<g id="glyph-0-5">
<path d="M 3.054688 -1.132812 C 3.054688 -0.839844 2.945312 -0.589844 2.71875 -0.378906 C 2.496094 -0.171875 2.214844 -0.0429688 1.875 -0.00390625 L 1.875 1.078125 L 1.535156 1.078125 L 1.535156 0.0117188 C 1.320312 0.0117188 1.101562 -0.015625 0.882812 -0.0625 C 0.667969 -0.109375 0.476562 -0.175781 0.316406 -0.253906 L 0.316406 -0.855469 L 0.359375 -0.855469 C 0.519531 -0.738281 0.695312 -0.644531 0.890625 -0.570312 C 1.089844 -0.496094 1.304688 -0.449219 1.535156 -0.429688 L 1.535156 -1.71875 C 1.484375 -1.730469 1.421875 -1.746094 1.351562 -1.761719 C 1.28125 -1.777344 1.21875 -1.796875 1.167969 -1.8125 C 0.871094 -1.894531 0.65625 -2.015625 0.53125 -2.179688 C 0.402344 -2.347656 0.335938 -2.550781 0.335938 -2.789062 C 0.335938 -3.070312 0.449219 -3.316406 0.667969 -3.527344 C 0.890625 -3.734375 1.175781 -3.855469 1.535156 -3.890625 L 1.535156 -4.703125 L 1.875 -4.703125 L 1.875 -3.898438 C 2.054688 -3.890625 2.242188 -3.867188 2.4375 -3.820312 C 2.628906 -3.777344 2.789062 -3.726562 2.914062 -3.671875 L 2.914062 -3.082031 L 2.867188 -3.082031 C 2.726562 -3.175781 2.574219 -3.261719 2.410156 -3.332031 C 2.242188 -3.40625 2.066406 -3.449219 1.875 -3.464844 L 1.875 -2.179688 C 1.9375 -2.167969 2 -2.152344 2.058594 -2.136719 C 2.113281 -2.121094 2.164062 -2.109375 2.203125 -2.101562 C 2.476562 -2.035156 2.683594 -1.925781 2.832031 -1.769531 C 2.980469 -1.613281 3.054688 -1.398438 3.054688 -1.132812 M 1.535156 -2.226562 L 1.535156 -3.460938 C 1.355469 -3.445312 1.203125 -3.386719 1.082031 -3.285156 C 0.960938 -3.1875 0.902344 -3.046875 0.902344 -2.867188 C 0.902344 -2.691406 0.945312 -2.554688 1.035156 -2.457031 C 1.121094 -2.359375 1.289062 -2.285156 1.535156 -2.226562 M 2.492188 -1.054688 C 2.492188 -1.242188 2.445312 -1.382812 2.347656 -1.472656 C 2.253906 -1.558594 2.09375 -1.628906 1.875 -1.675781 L 1.875 -0.4375 C 2.078125 -0.460938 2.230469 -0.519531 2.335938 -0.617188 C 2.4375 -0.71875 2.492188 -0.863281 2.492188 -1.054688 Z "/>
</g>
<g id="glyph-0-6">
<path d="M 3.015625 -1.414062 C 3.015625 -1.199219 2.980469 -1 2.914062 -0.816406 C 2.84375 -0.632812 2.75 -0.476562 2.625 -0.34375 C 2.5 -0.207031 2.34375 -0.101562 2.160156 -0.0234375 C 1.972656 0.0546875 1.765625 0.09375 1.535156 0.09375 C 1.320312 0.09375 1.113281 0.0703125 0.90625 0.0234375 C 0.699219 -0.0234375 0.519531 -0.0859375 0.371094 -0.160156 L 0.371094 -0.789062 L 0.410156 -0.789062 C 0.457031 -0.757812 0.523438 -0.71875 0.609375 -0.675781 C 0.695312 -0.632812 0.789062 -0.59375 0.890625 -0.554688 C 1.007812 -0.511719 1.117188 -0.480469 1.214844 -0.457031 C 1.3125 -0.433594 1.421875 -0.421875 1.542969 -0.421875 C 1.660156 -0.421875 1.777344 -0.445312 1.890625 -0.488281 C 2.003906 -0.53125 2.101562 -0.601562 2.183594 -0.695312 C 2.257812 -0.78125 2.3125 -0.886719 2.351562 -1.003906 C 2.390625 -1.121094 2.410156 -1.257812 2.410156 -1.417969 C 2.410156 -1.574219 2.390625 -1.703125 2.347656 -1.804688 C 2.304688 -1.90625 2.242188 -1.988281 2.160156 -2.054688 C 2.074219 -2.132812 1.96875 -2.183594 1.84375 -2.214844 C 1.722656 -2.246094 1.582031 -2.261719 1.429688 -2.261719 C 1.269531 -2.261719 1.105469 -2.25 0.941406 -2.222656 C 0.78125 -2.199219 0.648438 -2.175781 0.550781 -2.152344 L 0.550781 -4.441406 L 2.988281 -4.441406 L 2.988281 -3.921875 L 1.128906 -3.921875 L 1.128906 -2.738281 C 1.199219 -2.746094 1.269531 -2.753906 1.339844 -2.757812 C 1.410156 -2.761719 1.472656 -2.761719 1.53125 -2.761719 C 1.757812 -2.761719 1.949219 -2.742188 2.105469 -2.707031 C 2.261719 -2.667969 2.414062 -2.59375 2.558594 -2.484375 C 2.707031 -2.375 2.820312 -2.234375 2.898438 -2.066406 C 2.976562 -1.902344 3.015625 -1.683594 3.015625 -1.414062 Z "/>
</g>
<g id="glyph-0-7">
<path d="M 2.171875 -4.644531 L 0.433594 0.964844 L -0.0703125 0.964844 L 1.660156 -4.644531 Z "/>
</g>
<g id="glyph-0-8">
<path d="M 4.1875 0 L 4.1875 -1.925781 C 4.1875 -2.082031 4.183594 -2.222656 4.171875 -2.351562 C 4.160156 -2.484375 4.132812 -2.585938 4.097656 -2.660156 C 4.058594 -2.738281 4 -2.796875 3.925781 -2.835938 C 3.851562 -2.871094 3.753906 -2.890625 3.628906 -2.890625 C 3.511719 -2.890625 3.390625 -2.855469 3.257812 -2.785156 C 3.125 -2.714844 2.988281 -2.613281 2.847656 -2.480469 C 2.847656 -2.445312 2.851562 -2.40625 2.855469 -2.359375 C 2.855469 -2.3125 2.859375 -2.257812 2.859375 -2.191406 L 2.859375 0 L 2.296875 0 L 2.296875 -1.925781 C 2.296875 -2.082031 2.292969 -2.222656 2.28125 -2.351562 C 2.269531 -2.484375 2.242188 -2.585938 2.203125 -2.660156 C 2.164062 -2.738281 2.109375 -2.796875 2.035156 -2.835938 C 1.960938 -2.871094 1.863281 -2.890625 1.738281 -2.890625 C 1.613281 -2.890625 1.488281 -2.851562 1.355469 -2.777344 C 1.222656 -2.703125 1.09375 -2.605469 0.964844 -2.488281 L 0.964844 0 L 0.40625 0 L 0.40625 -3.332031 L 0.964844 -3.332031 L 0.964844 -2.960938 C 1.113281 -3.109375 1.257812 -3.222656 1.402344 -3.304688 C 1.546875 -3.386719 1.707031 -3.425781 1.878906 -3.425781 C 2.078125 -3.425781 2.25 -3.378906 2.402344 -3.292969 C 2.554688 -3.203125 2.671875 -3.054688 2.75 -2.847656 C 2.921875 -3.039062 3.085938 -3.183594 3.246094 -3.277344 C 3.40625 -3.375 3.582031 -3.425781 3.769531 -3.425781 C 3.914062 -3.425781 4.046875 -3.402344 4.164062 -3.359375 C 4.28125 -3.3125 4.382812 -3.242188 4.46875 -3.140625 C 4.558594 -3.039062 4.628906 -2.914062 4.675781 -2.761719 C 4.726562 -2.613281 4.75 -2.421875 4.75 -2.191406 L 4.75 0 Z "/>
</g>
<g id="glyph-0-9">
<path d="M 3.148438 -1.664062 C 3.148438 -1.105469 3.011719 -0.671875 2.742188 -0.367188 C 2.472656 -0.0585938 2.113281 0.09375 1.660156 0.09375 C 1.199219 0.09375 0.832031 -0.0664062 0.570312 -0.378906 C 0.304688 -0.695312 0.171875 -1.125 0.171875 -1.664062 C 0.171875 -2.222656 0.308594 -2.65625 0.582031 -2.960938 C 0.855469 -3.269531 1.214844 -3.425781 1.660156 -3.425781 C 2.113281 -3.425781 2.472656 -3.273438 2.742188 -2.964844 C 3.011719 -2.65625 3.148438 -2.222656 3.148438 -1.664062 M 2.570312 -1.664062 C 2.570312 -2.097656 2.492188 -2.417969 2.332031 -2.628906 C 2.175781 -2.835938 1.953125 -2.941406 1.660156 -2.941406 C 1.371094 -2.941406 1.144531 -2.835938 0.984375 -2.628906 C 0.828125 -2.417969 0.75 -2.097656 0.75 -1.664062 C 0.75 -1.246094 0.828125 -0.929688 0.984375 -0.714844 C 1.144531 -0.5 1.371094 -0.390625 1.660156 -0.390625 C 1.949219 -0.390625 2.171875 -0.496094 2.332031 -0.707031 C 2.488281 -0.921875 2.570312 -1.238281 2.570312 -1.664062 Z "/>
</g>
<g id="glyph-0-10">
<path d="M 1.28125 0 L 0.566406 0 L 0.566406 -0.851562 L 1.28125 -0.851562 Z "/>
</g>
<g id="glyph-0-11">
<path d="M 3.628906 0 L 2.964844 0 L 1.003906 -3.832031 L 1.003906 0 L 0.449219 0 L 0.449219 -4.441406 L 1.289062 -4.441406 L 3.078125 -0.925781 L 3.078125 -4.441406 L 3.628906 -4.441406 Z "/>
</g>
<g id="glyph-0-12">
<path d="M 1.730469 0.0742188 C 1.5 0.0742188 1.292969 0.0390625 1.101562 -0.03125 C 0.910156 -0.101562 0.746094 -0.207031 0.609375 -0.351562 C 0.472656 -0.496094 0.363281 -0.675781 0.289062 -0.894531 C 0.214844 -1.113281 0.175781 -1.367188 0.175781 -1.660156 C 0.175781 -1.953125 0.214844 -2.207031 0.292969 -2.417969 C 0.371094 -2.632812 0.476562 -2.8125 0.609375 -2.957031 C 0.738281 -3.101562 0.902344 -3.214844 1.097656 -3.292969 C 1.296875 -3.371094 1.503906 -3.410156 1.730469 -3.410156 C 1.914062 -3.410156 2.089844 -3.382812 2.261719 -3.332031 C 2.429688 -3.28125 2.582031 -3.222656 2.714844 -3.152344 L 2.714844 -2.523438 L 2.683594 -2.523438 C 2.644531 -2.558594 2.589844 -2.597656 2.527344 -2.640625 C 2.464844 -2.683594 2.390625 -2.730469 2.300781 -2.773438 C 2.222656 -2.816406 2.132812 -2.847656 2.027344 -2.878906 C 1.921875 -2.910156 1.820312 -2.925781 1.722656 -2.925781 C 1.429688 -2.925781 1.199219 -2.8125 1.023438 -2.59375 C 0.847656 -2.375 0.757812 -2.0625 0.757812 -1.660156 C 0.757812 -1.269531 0.84375 -0.960938 1.011719 -0.742188 C 1.183594 -0.523438 1.417969 -0.410156 1.722656 -0.410156 C 1.90625 -0.410156 2.078125 -0.449219 2.242188 -0.523438 C 2.410156 -0.601562 2.554688 -0.699219 2.683594 -0.816406 L 2.714844 -0.816406 L 2.714844 -0.1875 C 2.660156 -0.164062 2.589844 -0.128906 2.507812 -0.09375 C 2.421875 -0.0585938 2.347656 -0.03125 2.28125 -0.0117188 C 2.183594 0.015625 2.097656 0.0390625 2.023438 0.0507812 C 1.949219 0.0664062 1.851562 0.0742188 1.730469 0.0742188 Z "/>
</g>
<g id="glyph-0-13">
<path d="M 0.980469 0 L 0.417969 0 L 0.417969 -3.332031 L 0.980469 -3.332031 L 0.980469 0 M 1.015625 -3.890625 L 0.378906 -3.890625 L 0.378906 -4.472656 L 1.015625 -4.472656 Z "/>
</g>
<g id="glyph-0-14">
<path d="M 1.851562 0.078125 C 1.320312 0.078125 0.910156 -0.0703125 0.617188 -0.371094 C 0.324219 -0.671875 0.175781 -1.097656 0.175781 -1.648438 C 0.175781 -2.191406 0.316406 -2.621094 0.601562 -2.945312 C 0.886719 -3.265625 1.257812 -3.425781 1.71875 -3.425781 C 1.925781 -3.425781 2.109375 -3.394531 2.269531 -3.335938 C 2.425781 -3.277344 2.566406 -3.183594 2.683594 -3.054688 C 2.804688 -2.929688 2.894531 -2.773438 2.960938 -2.589844 C 3.023438 -2.40625 3.054688 -2.179688 3.054688 -1.914062 L 3.054688 -1.609375 L 0.746094 -1.609375 C 0.746094 -1.21875 0.84375 -0.925781 1.039062 -0.71875 C 1.234375 -0.515625 1.503906 -0.410156 1.847656 -0.410156 C 1.96875 -0.410156 2.089844 -0.425781 2.210938 -0.453125 C 2.328125 -0.480469 2.433594 -0.515625 2.53125 -0.5625 C 2.632812 -0.605469 2.71875 -0.652344 2.785156 -0.695312 C 2.855469 -0.738281 2.914062 -0.777344 2.960938 -0.816406 L 2.992188 -0.816406 L 2.992188 -0.203125 C 2.925781 -0.175781 2.84375 -0.144531 2.746094 -0.105469 C 2.652344 -0.0664062 2.5625 -0.0351562 2.484375 -0.015625 C 2.375 0.015625 2.277344 0.0390625 2.1875 0.0546875 C 2.101562 0.0703125 1.988281 0.078125 1.851562 0.078125 M 2.507812 -2.039062 C 2.503906 -2.1875 2.488281 -2.320312 2.457031 -2.429688 C 2.421875 -2.539062 2.378906 -2.628906 2.316406 -2.707031 C 2.253906 -2.789062 2.167969 -2.851562 2.066406 -2.898438 C 1.964844 -2.941406 1.835938 -2.960938 1.6875 -2.960938 C 1.535156 -2.960938 1.410156 -2.941406 1.304688 -2.894531 C 1.199219 -2.851562 1.105469 -2.785156 1.019531 -2.699219 C 0.9375 -2.613281 0.875 -2.515625 0.828125 -2.410156 C 0.785156 -2.304688 0.757812 -2.179688 0.746094 -2.039062 Z "/>
</g>
<g id="glyph-0-15">
<path d="M 3.027344 0 L 2.464844 0 L 2.464844 -1.898438 C 2.464844 -2.050781 2.457031 -2.195312 2.441406 -2.324219 C 2.425781 -2.457031 2.398438 -2.5625 2.355469 -2.644531 C 2.3125 -2.726562 2.246094 -2.789062 2.167969 -2.828125 C 2.085938 -2.871094 1.972656 -2.890625 1.832031 -2.890625 C 1.691406 -2.890625 1.550781 -2.855469 1.402344 -2.78125 C 1.253906 -2.703125 1.109375 -2.609375 0.964844 -2.488281 L 0.964844 0 L 0.40625 0 L 0.40625 -3.332031 L 0.964844 -3.332031 L 0.964844 -2.960938 C 1.132812 -3.113281 1.300781 -3.226562 1.460938 -3.304688 C 1.625 -3.386719 1.796875 -3.425781 1.976562 -3.425781 C 2.304688 -3.425781 2.5625 -3.316406 2.746094 -3.101562 C 2.933594 -2.886719 3.027344 -2.574219 3.027344 -2.164062 Z "/>
</g>
<g id="glyph-0-16">
<path d="M 1.308594 0.0820312 C 1.085938 0.0820312 0.875 0.0507812 0.683594 -0.0078125 C 0.488281 -0.0703125 0.328125 -0.132812 0.199219 -0.199219 L 0.199219 -0.828125 L 0.230469 -0.828125 C 0.277344 -0.792969 0.332031 -0.75 0.398438 -0.703125 C 0.464844 -0.660156 0.550781 -0.609375 0.65625 -0.5625 C 0.75 -0.515625 0.855469 -0.476562 0.972656 -0.445312 C 1.085938 -0.410156 1.203125 -0.394531 1.328125 -0.394531 C 1.417969 -0.394531 1.511719 -0.402344 1.613281 -0.425781 C 1.714844 -0.445312 1.792969 -0.472656 1.839844 -0.503906 C 1.910156 -0.550781 1.960938 -0.597656 1.992188 -0.652344 C 2.023438 -0.703125 2.039062 -0.78125 2.039062 -0.882812 C 2.039062 -1.015625 2 -1.117188 1.929688 -1.183594 C 1.855469 -1.253906 1.726562 -1.308594 1.542969 -1.355469 C 1.472656 -1.371094 1.378906 -1.394531 1.261719 -1.417969 C 1.148438 -1.441406 1.039062 -1.46875 0.941406 -1.496094 C 0.6875 -1.570312 0.503906 -1.683594 0.386719 -1.835938 C 0.273438 -1.992188 0.214844 -2.175781 0.214844 -2.394531 C 0.214844 -2.695312 0.328125 -2.941406 0.554688 -3.128906 C 0.78125 -3.320312 1.082031 -3.414062 1.460938 -3.414062 C 1.644531 -3.414062 1.828125 -3.390625 2.015625 -3.34375 C 2.203125 -3.300781 2.359375 -3.242188 2.488281 -3.171875 L 2.488281 -2.570312 L 2.457031 -2.570312 C 2.316406 -2.683594 2.15625 -2.773438 1.980469 -2.839844 C 1.804688 -2.90625 1.625 -2.9375 1.445312 -2.9375 C 1.261719 -2.9375 1.105469 -2.898438 0.980469 -2.824219 C 0.851562 -2.746094 0.789062 -2.628906 0.789062 -2.46875 C 0.789062 -2.332031 0.824219 -2.226562 0.902344 -2.160156 C 0.976562 -2.089844 1.097656 -2.035156 1.265625 -1.988281 C 1.347656 -1.96875 1.441406 -1.945312 1.542969 -1.925781 C 1.648438 -1.90625 1.753906 -1.878906 1.867188 -1.851562 C 2.113281 -1.792969 2.300781 -1.6875 2.425781 -1.546875 C 2.546875 -1.402344 2.609375 -1.207031 2.609375 -0.960938 C 2.609375 -0.816406 2.582031 -0.683594 2.527344 -0.554688 C 2.46875 -0.425781 2.386719 -0.316406 2.277344 -0.222656 C 2.15625 -0.125 2.023438 -0.046875 1.871094 0.00390625 C 1.722656 0.0546875 1.535156 0.0820312 1.308594 0.0820312 Z "/>
</g>
</g>
</defs>
<g fill="rgb(22.352941%, 100%, 7.843137%)" fill-opacity="1">
<use xlink:href="#glyph-0-0" x="30" y="26.113281"/>
<use xlink:href="#glyph-0-1" x="33" y="26.113281"/>
<use xlink:href="#glyph-0-2" x="35" y="26.113281"/>
<use xlink:href="#glyph-0-3" x="38" y="26.113281"/>
<use xlink:href="#glyph-0-1" x="40" y="26.113281"/>
<use xlink:href="#glyph-0-4" x="42" y="26.113281"/>
<use xlink:href="#glyph-0-2" x="44" y="26.113281"/>
<use xlink:href="#glyph-0-1" x="47" y="26.113281"/>
<use xlink:href="#glyph-0-4" x="49" y="26.113281"/>
<use xlink:href="#glyph-0-5" x="51" y="26.113281"/>
<use xlink:href="#glyph-0-6" x="54" y="26.113281"/>
<use xlink:href="#glyph-0-7" x="57" y="26.113281"/>
<use xlink:href="#glyph-0-8" x="59" y="26.113281"/>
<use xlink:href="#glyph-0-9" x="64" y="26.113281"/>
<use xlink:href="#glyph-0-10" x="66.973633" y="26.113281"/>
<use xlink:href="#glyph-0-4" x="69" y="26.113281"/>
<use xlink:href="#glyph-0-11" x="71" y="26.113281"/>
<use xlink:href="#glyph-0-9" x="75" y="26.113281"/>
<use xlink:href="#glyph-0-4" x="78" y="26.113281"/>
<use xlink:href="#glyph-0-12" x="80" y="26.113281"/>
<use xlink:href="#glyph-0-9" x="83" y="26.113281"/>
<use xlink:href="#glyph-0-8" x="86" y="26.113281"/>
<use xlink:href="#glyph-0-8" x="91" y="26.113281"/>
<use xlink:href="#glyph-0-13" x="96" y="26.113281"/>
<use xlink:href="#glyph-0-1" x="97.005859" y="26.113281"/>
<use xlink:href="#glyph-0-8" x="99" y="26.113281"/>
<use xlink:href="#glyph-0-14" x="104" y="26.113281"/>
<use xlink:href="#glyph-0-15" x="107" y="26.113281"/>
<use xlink:href="#glyph-0-1" x="110" y="26.113281"/>
<use xlink:href="#glyph-0-16" x="112" y="26.113281"/>
<use xlink:href="#glyph-0-10" x="115" y="26.113281"/>
</g>
</svg>
