<?xml version="1.0" encoding="UTF-8"?>
<svg xmlns="http://www.w3.org/2000/svg" xmlns:xlink="http://www.w3.org/1999/xlink" width="854" height="480" viewBox="0 0 854 480">
<defs>
<g>
<g id="glyph-0-0">
<path d="M 2.507812 0 L 2.507812 -6.863281 L 0 -6.863281 L 0 -8.480469 L 7.144531 -8.480469 L 7.144531 -6.863281 L 4.636719 -6.863281 L 4.636719 0 Z "/>
</g>
<g id="glyph-0-1">
<path d="M 6.757812 0 L 4.75 0 L 4.75 -3.171875 C 4.75 -3.429688 4.742188 -3.6875 4.71875 -3.945312 C 4.699219 -4.203125 4.660156 -4.390625 4.601562 -4.511719 C 4.535156 -4.65625 4.4375 -4.757812 4.304688 -4.820312 C 4.175781 -4.886719 4.003906 -4.917969 3.789062 -4.917969 C 3.625 -4.917969 3.460938 -4.886719 3.292969 -4.824219 C 3.125 -4.765625 2.945312 -4.667969 2.757812 -4.535156 L 2.757812 0 L 0.761719 0 L 0.761719 -8.863281 L 2.757812 -8.863281 L 2.757812 -5.691406 C 3.082031 -5.96875 3.402344 -6.183594 3.710938 -6.339844 C 4.019531 -6.496094 4.363281 -6.574219 4.738281 -6.574219 C 5.394531 -6.574219 5.890625 -6.367188 6.238281 -5.957031 C 6.582031 -5.542969 6.757812 -4.945312 6.757812 -4.164062 Z "/>
</g>
<g id="glyph-0-2">
<path d="M 4.039062 0.171875 C 2.832031 0.171875 1.90625 -0.117188 1.261719 -0.695312 C 0.617188 -1.273438 0.296875 -2.09375 0.296875 -3.160156 C 0.296875 -4.207031 0.597656 -5.039062 1.195312 -5.664062 C 1.796875 -6.285156 2.636719 -6.597656 3.714844 -6.597656 C 4.695312 -6.597656 5.429688 -6.332031 5.925781 -5.804688 C 6.417969 -5.277344 6.664062 -4.519531 6.664062 -3.539062 L 6.664062 -2.820312 L 2.296875 -2.820312 C 2.316406 -2.523438 2.378906 -2.277344 2.484375 -2.078125 C 2.589844 -1.878906 2.730469 -1.71875 2.90625 -1.601562 C 3.078125 -1.484375 3.277344 -1.398438 3.503906 -1.347656 C 3.730469 -1.296875 3.980469 -1.269531 4.25 -1.269531 C 4.480469 -1.269531 4.710938 -1.296875 4.933594 -1.347656 C 5.15625 -1.398438 5.363281 -1.464844 5.546875 -1.550781 C 5.710938 -1.621094 5.863281 -1.699219 6 -1.78125 C 6.140625 -1.867188 6.253906 -1.941406 6.339844 -2.003906 L 6.550781 -2.003906 L 6.550781 -0.359375 C 6.386719 -0.292969 6.238281 -0.234375 6.105469 -0.179688 C 5.96875 -0.125 5.785156 -0.0703125 5.546875 -0.0117188 C 5.332031 0.046875 5.109375 0.0898438 4.878906 0.121094 C 4.648438 0.15625 4.371094 0.171875 4.039062 0.171875 M 4.699219 -4.023438 C 4.6875 -4.445312 4.589844 -4.765625 4.40625 -4.984375 C 4.222656 -5.203125 3.941406 -5.316406 3.558594 -5.316406 C 3.171875 -5.316406 2.871094 -5.199219 2.652344 -4.96875 C 2.433594 -4.734375 2.3125 -4.421875 2.289062 -4.023438 Z "/>
</g>
<g id="glyph-0-3">
</g>
<g id="glyph-0-4">
<path d="M 7.40625 -5.804688 C 7.40625 -5.410156 7.34375 -5.035156 7.21875 -4.675781 C 7.09375 -4.320312 6.910156 -4.023438 6.675781 -3.78125 C 6.53125 -3.632812 6.375 -3.496094 6.199219 -3.371094 C 6.027344 -3.246094 5.835938 -3.140625 5.628906 -3.054688 C 5.417969 -2.964844 5.191406 -2.898438 4.949219 -2.847656 C 4.703125 -2.800781 4.429688 -2.773438 4.125 -2.773438 L 3.007812 -2.773438 L 3.007812 0 L 0.878906 0 L 0.878906 -8.480469 L 4.171875 -8.480469 C 4.660156 -8.480469 5.082031 -8.4375 5.4375 -8.347656 C 5.792969 -8.257812 6.113281 -8.117188 6.402344 -7.925781 C 6.722656 -7.710938 6.96875 -7.425781 7.144531 -7.074219 C 7.316406 -6.71875 7.40625 -6.292969 7.40625 -5.804688 M 5.21875 -5.753906 C 5.21875 -5.992188 5.160156 -6.199219 5.046875 -6.371094 C 4.933594 -6.542969 4.796875 -6.664062 4.636719 -6.726562 C 4.4375 -6.816406 4.242188 -6.867188 4.058594 -6.878906 C 3.875 -6.890625 3.625 -6.898438 3.308594 -6.898438 L 3.007812 -6.898438 L 3.007812 -4.359375 L 3.15625 -4.359375 C 3.355469 -4.359375 3.546875 -4.359375 3.726562 -4.363281 C 3.902344 -4.367188 4.058594 -4.378906 4.191406 -4.402344 C 4.304688 -4.421875 4.425781 -4.460938 4.554688 -4.515625 C 4.683594 -4.570312 4.78125 -4.632812 4.847656 -4.699219 C 4.992188 -4.839844 5.089844 -4.988281 5.140625 -5.136719 C 5.191406 -5.289062 5.21875 -5.496094 5.21875 -5.753906 Z "/>
</g>
<g id="glyph-0-5">
<path d="M 5.058594 -4.511719 L 4.894531 -4.511719 C 4.816406 -4.539062 4.707031 -4.558594 4.5625 -4.570312 C 4.417969 -4.585938 4.257812 -4.589844 4.085938 -4.589844 C 3.875 -4.589844 3.65625 -4.5625 3.425781 -4.5 C 3.195312 -4.441406 2.972656 -4.367188 2.757812 -4.285156 L 2.757812 0 L 0.761719 0 L 0.761719 -6.398438 L 2.757812 -6.398438 L 2.757812 -5.480469 C 2.847656 -5.5625 2.972656 -5.667969 3.136719 -5.796875 C 3.296875 -5.921875 3.445312 -6.023438 3.578125 -6.101562 C 3.722656 -6.1875 3.890625 -6.261719 4.082031 -6.324219 C 4.273438 -6.390625 4.453125 -6.421875 4.625 -6.421875 C 4.691406 -6.421875 4.761719 -6.417969 4.84375 -6.414062 C 4.921875 -6.410156 4.992188 -6.40625 5.058594 -6.398438 Z "/>
</g>
<g id="glyph-0-6">
<path d="M 2.757812 0 L 0.761719 0 L 0.761719 -6.398438 L 2.757812 -6.398438 L 2.757812 0 M 2.8125 -7.308594 L 0.707031 -7.308594 L 0.707031 -8.863281 L 2.8125 -8.863281 Z "/>
</g>
<g id="glyph-0-7">
<path d="M 3.902344 0.171875 C 3.375 0.171875 2.890625 0.105469 2.453125 -0.0273438 C 2.015625 -0.160156 1.632812 -0.367188 1.308594 -0.644531 C 0.992188 -0.921875 0.742188 -1.269531 0.5625 -1.6875 C 0.386719 -2.109375 0.296875 -2.601562 0.296875 -3.171875 C 0.296875 -3.785156 0.394531 -4.304688 0.585938 -4.734375 C 0.78125 -5.164062 1.042969 -5.515625 1.371094 -5.792969 C 1.691406 -6.058594 2.066406 -6.253906 2.496094 -6.382812 C 2.929688 -6.511719 3.378906 -6.574219 3.84375 -6.574219 C 4.199219 -6.574219 4.550781 -6.53125 4.90625 -6.453125 C 5.257812 -6.371094 5.613281 -6.238281 5.96875 -6.0625 L 5.96875 -4.351562 L 5.714844 -4.351562 C 5.632812 -4.429688 5.535156 -4.511719 5.421875 -4.601562 C 5.304688 -4.695312 5.179688 -4.777344 5.042969 -4.851562 C 4.898438 -4.933594 4.734375 -5 4.550781 -5.054688 C 4.371094 -5.109375 4.167969 -5.136719 3.941406 -5.136719 C 3.433594 -5.136719 3.039062 -4.960938 2.761719 -4.605469 C 2.480469 -4.25 2.339844 -3.773438 2.339844 -3.171875 C 2.339844 -2.53125 2.492188 -2.050781 2.789062 -1.738281 C 3.085938 -1.421875 3.484375 -1.265625 3.976562 -1.265625 C 4.226562 -1.265625 4.445312 -1.292969 4.636719 -1.351562 C 4.828125 -1.40625 4.988281 -1.476562 5.125 -1.554688 C 5.261719 -1.636719 5.375 -1.71875 5.46875 -1.804688 C 5.5625 -1.886719 5.644531 -1.964844 5.714844 -2.035156 L 5.96875 -2.035156 L 5.96875 -0.324219 C 5.855469 -0.273438 5.722656 -0.21875 5.574219 -0.152344 C 5.425781 -0.0898438 5.269531 -0.0351562 5.117188 0.00390625 C 4.921875 0.0585938 4.742188 0.101562 4.570312 0.128906 C 4.402344 0.15625 4.179688 0.171875 3.902344 0.171875 Z "/>
</g>
<g id="glyph-0-8">
<path d="M 7.964844 -0.484375 C 7.589844 -0.332031 7.109375 -0.183594 6.515625 -0.0390625 C 5.917969 0.105469 5.332031 0.175781 4.757812 0.175781 C 3.421875 0.175781 2.359375 -0.207031 1.570312 -0.976562 C 0.777344 -1.746094 0.382812 -2.835938 0.382812 -4.25 C 0.382812 -5.578125 0.777344 -6.644531 1.570312 -7.445312 C 2.359375 -8.246094 3.445312 -8.648438 4.820312 -8.648438 C 5.53125 -8.648438 6.105469 -8.578125 6.550781 -8.445312 C 6.996094 -8.308594 7.453125 -8.128906 7.929688 -7.894531 L 7.929688 -5.90625 L 7.734375 -5.90625 C 7.632812 -5.988281 7.484375 -6.101562 7.292969 -6.246094 C 7.101562 -6.390625 6.914062 -6.515625 6.734375 -6.621094 C 6.519531 -6.742188 6.273438 -6.84375 5.996094 -6.933594 C 5.714844 -7.019531 5.421875 -7.0625 5.109375 -7.0625 C 4.746094 -7.0625 4.414062 -7.007812 4.113281 -6.894531 C 3.8125 -6.777344 3.546875 -6.605469 3.308594 -6.367188 C 3.085938 -6.140625 2.90625 -5.851562 2.777344 -5.503906 C 2.644531 -5.152344 2.582031 -4.746094 2.582031 -4.285156 C 2.582031 -3.292969 2.828125 -2.5625 3.328125 -2.089844 C 3.824219 -1.621094 4.503906 -1.382812 5.367188 -1.382812 C 5.441406 -1.382812 5.53125 -1.386719 5.632812 -1.390625 C 5.738281 -1.394531 5.824219 -1.398438 5.902344 -1.40625 L 5.902344 -3.070312 L 4.253906 -3.070312 L 4.253906 -4.660156 L 7.964844 -4.660156 Z "/>
</g>
<g id="glyph-0-9">
<path d="M 4.289062 -1.667969 L 4.289062 -3.003906 C 3.953125 -2.96875 3.679688 -2.9375 3.46875 -2.914062 C 3.261719 -2.890625 3.054688 -2.839844 2.855469 -2.769531 C 2.679688 -2.707031 2.542969 -2.617188 2.445312 -2.492188 C 2.351562 -2.367188 2.300781 -2.203125 2.300781 -2 C 2.300781 -1.699219 2.382812 -1.492188 2.542969 -1.382812 C 2.703125 -1.269531 2.941406 -1.214844 3.257812 -1.214844 C 3.433594 -1.214844 3.613281 -1.253906 3.792969 -1.332031 C 3.976562 -1.414062 4.140625 -1.523438 4.289062 -1.667969 M 4.289062 -0.679688 C 4.152344 -0.5625 4.03125 -0.460938 3.921875 -0.371094 C 3.8125 -0.277344 3.667969 -0.1875 3.484375 -0.0976562 C 3.308594 -0.0078125 3.132812 0.0585938 2.964844 0.101562 C 2.796875 0.148438 2.558594 0.171875 2.257812 0.171875 C 1.691406 0.171875 1.21875 -0.0195312 0.847656 -0.398438 C 0.472656 -0.777344 0.285156 -1.257812 0.285156 -1.835938 C 0.285156 -2.308594 0.378906 -2.691406 0.570312 -2.984375 C 0.757812 -3.277344 1.03125 -3.507812 1.390625 -3.679688 C 1.75 -3.855469 2.183594 -3.976562 2.683594 -4.042969 C 3.183594 -4.113281 3.722656 -4.167969 4.300781 -4.203125 L 4.300781 -4.238281 C 4.300781 -4.589844 4.171875 -4.835938 3.910156 -4.96875 C 3.652344 -5.105469 3.261719 -5.171875 2.738281 -5.171875 C 2.503906 -5.171875 2.230469 -5.128906 1.914062 -5.042969 C 1.597656 -4.957031 1.292969 -4.851562 0.992188 -4.71875 L 0.820312 -4.71875 L 0.820312 -6.261719 C 1.019531 -6.316406 1.335938 -6.386719 1.777344 -6.460938 C 2.21875 -6.539062 2.664062 -6.578125 3.109375 -6.578125 C 4.210938 -6.578125 5.015625 -6.394531 5.515625 -6.03125 C 6.019531 -5.664062 6.273438 -5.105469 6.273438 -4.351562 L 6.273438 0 L 4.289062 0 Z "/>
</g>
<g id="glyph-0-10">
<path d="M 7.035156 -3.285156 C 7.035156 -2.265625 6.777344 -1.441406 6.257812 -0.816406 C 5.738281 -0.1875 5.101562 0.125 4.339844 0.125 C 4.023438 0.125 3.746094 0.0898438 3.507812 0.015625 C 3.273438 -0.0546875 3.023438 -0.167969 2.757812 -0.320312 L 2.757812 2.347656 L 0.761719 2.347656 L 0.761719 -6.398438 L 2.757812 -6.398438 L 2.757812 -5.730469 C 3.050781 -5.980469 3.347656 -6.183594 3.652344 -6.339844 C 3.957031 -6.496094 4.304688 -6.574219 4.707031 -6.574219 C 5.445312 -6.574219 6.019531 -6.28125 6.425781 -5.691406 C 6.832031 -5.101562 7.035156 -4.300781 7.035156 -3.285156 M 4.996094 -3.246094 C 4.996094 -3.871094 4.898438 -4.320312 4.707031 -4.601562 C 4.515625 -4.882812 4.21875 -5.023438 3.8125 -5.023438 C 3.632812 -5.023438 3.453125 -4.996094 3.277344 -4.9375 C 3.101562 -4.882812 2.929688 -4.796875 2.757812 -4.683594 L 2.757812 -1.464844 C 2.863281 -1.417969 2.980469 -1.386719 3.109375 -1.367188 C 3.234375 -1.347656 3.386719 -1.339844 3.558594 -1.339844 C 4.046875 -1.339844 4.40625 -1.496094 4.644531 -1.8125 C 4.878906 -2.132812 4.996094 -2.609375 4.996094 -3.246094 Z "/>
</g>
<g id="glyph-0-11">
<path d="M 5.105469 0 L 0.535156 0 L 0.535156 -1.480469 L 1.753906 -1.480469 L 1.753906 -7 L 0.535156 -7 L 0.535156 -8.480469 L 5.105469 -8.480469 L 5.105469 -7 L 3.886719 -7 L 3.886719 -1.480469 L 5.105469 -1.480469 Z "/>
</g>
<g id="glyph-0-12">
<path d="M 2.710938 0.175781 C 2.242188 0.175781 1.796875 0.125 1.375 0.0234375 C 0.957031 -0.078125 0.609375 -0.199219 0.335938 -0.335938 L 0.335938 -2.023438 L 0.5 -2.023438 C 0.597656 -1.949219 0.703125 -1.871094 0.824219 -1.78125 C 0.949219 -1.695312 1.117188 -1.605469 1.332031 -1.507812 C 1.519531 -1.421875 1.730469 -1.347656 1.960938 -1.285156 C 2.195312 -1.222656 2.449219 -1.191406 2.722656 -1.191406 C 3.003906 -1.191406 3.25 -1.234375 3.464844 -1.320312 C 3.679688 -1.410156 3.789062 -1.546875 3.789062 -1.738281 C 3.789062 -1.886719 3.738281 -1.996094 3.640625 -2.074219 C 3.542969 -2.148438 3.351562 -2.222656 3.066406 -2.289062 C 2.914062 -2.328125 2.722656 -2.367188 2.488281 -2.414062 C 2.257812 -2.457031 2.050781 -2.507812 1.875 -2.5625 C 1.371094 -2.71875 0.996094 -2.949219 0.742188 -3.253906 C 0.492188 -3.5625 0.363281 -3.964844 0.363281 -4.460938 C 0.363281 -4.746094 0.429688 -5.015625 0.5625 -5.265625 C 0.691406 -5.519531 0.886719 -5.742188 1.140625 -5.941406 C 1.394531 -6.136719 1.707031 -6.289062 2.082031 -6.402344 C 2.457031 -6.515625 2.878906 -6.574219 3.351562 -6.574219 C 3.796875 -6.574219 4.210938 -6.527344 4.585938 -6.441406 C 4.960938 -6.351562 5.277344 -6.242188 5.539062 -6.117188 L 5.539062 -4.5 L 5.378906 -4.5 C 5.308594 -4.554688 5.199219 -4.625 5.054688 -4.714844 C 4.90625 -4.804688 4.761719 -4.878906 4.621094 -4.945312 C 4.453125 -5.019531 4.265625 -5.082031 4.058594 -5.132812 C 3.851562 -5.183594 3.640625 -5.207031 3.421875 -5.207031 C 3.136719 -5.207031 2.890625 -5.15625 2.691406 -5.058594 C 2.492188 -4.960938 2.390625 -4.828125 2.390625 -4.664062 C 2.390625 -4.519531 2.441406 -4.40625 2.539062 -4.324219 C 2.640625 -4.238281 2.855469 -4.160156 3.183594 -4.078125 C 3.355469 -4.035156 3.550781 -3.996094 3.773438 -3.957031 C 3.996094 -3.917969 4.210938 -3.863281 4.414062 -3.792969 C 4.875 -3.644531 5.222656 -3.429688 5.460938 -3.140625 C 5.699219 -2.855469 5.816406 -2.472656 5.816406 -2 C 5.816406 -1.699219 5.746094 -1.414062 5.605469 -1.140625 C 5.464844 -0.871094 5.265625 -0.640625 5.007812 -0.457031 C 4.734375 -0.253906 4.410156 -0.0976562 4.042969 0.0117188 C 3.671875 0.121094 3.226562 0.175781 2.710938 0.175781 Z "/>
</g>
<g id="glyph-0-13">
<path d="M 8.722656 0 L 6.125 0 L 3.757812 -3.109375 L 2.996094 -3.109375 L 2.996094 0 L 0.878906 0 L 0.878906 -8.480469 L 4.289062 -8.480469 C 4.761719 -8.480469 5.171875 -8.453125 5.519531 -8.394531 C 5.871094 -8.335938 6.191406 -8.210938 6.488281 -8.027344 C 6.792969 -7.832031 7.035156 -7.585938 7.210938 -7.289062 C 7.390625 -6.992188 7.480469 -6.613281 7.480469 -6.152344 C 7.480469 -5.503906 7.332031 -4.976562 7.039062 -4.570312 C 6.75 -4.167969 6.359375 -3.84375 5.867188 -3.605469 L 8.722656 0 M 5.292969 -5.882812 C 5.292969 -6.097656 5.25 -6.28125 5.167969 -6.433594 C 5.089844 -6.589844 4.953125 -6.707031 4.761719 -6.789062 C 4.628906 -6.847656 4.480469 -6.882812 4.316406 -6.898438 C 4.15625 -6.914062 3.953125 -6.921875 3.707031 -6.921875 L 2.996094 -6.921875 L 2.996094 -4.636719 L 3.605469 -4.636719 C 3.902344 -4.636719 4.152344 -4.65625 4.359375 -4.691406 C 4.566406 -4.726562 4.742188 -4.804688 4.886719 -4.921875 C 5.023438 -5.027344 5.125 -5.15625 5.191406 -5.304688 C 5.257812 -5.453125 5.292969 -5.644531 5.292969 -5.882812 Z "/>
</g>
<g id="glyph-0-14">
<path d="M 2.757812 0 L 0.761719 0 L 0.761719 -8.863281 L 2.757812 -8.863281 Z "/>
</g>
</g>
</defs>
<g fill="rgb(0%, 96.078431%, 100%)" fill-opacity="1">
<use xlink:href="#glyph-0-0" x="30" y="31.671875"/>
<use xlink:href="#glyph-0-1" x="37" y="31.671875"/>
<use xlink:href="#glyph-0-2" x="44" y="31.671875"/>
<use xlink:href="#glyph-0-3" x="51" y="31.671875"/>
<use xlink:href="#glyph-0-4" x="54" y="31.671875"/>
<use xlink:href="#glyph-0-5" x="62" y="31.671875"/>
<use xlink:href="#glyph-0-6" x="67" y="31.671875"/>
<use xlink:href="#glyph-0-7" x="71" y="31.671875"/>
<use xlink:href="#glyph-0-2" x="77" y="31.671875"/>
<use xlink:href="#glyph-0-3" x="84" y="31.671875"/>
<use xlink:href="#glyph-0-8" x="87" y="31.671875"/>
<use xlink:href="#glyph-0-9" x="96" y="31.671875"/>
<use xlink:href="#glyph-0-10" x="103" y="31.671875"/>
<use xlink:href="#glyph-0-3" x="110" y="31.671875"/>
<use xlink:href="#glyph-0-11" x="113" y="31.671875"/>
<use xlink:href="#glyph-0-12" x="119" y="31.671875"/>
<use xlink:href="#glyph-0-3" x="125" y="31.671875"/>
<use xlink:href="#glyph-0-13" x="128" y="31.671875"/>
<use xlink:href="#glyph-0-2" x="136" y="31.671875"/>
<use xlink:href="#glyph-0-9" x="143" y="31.671875"/>
<use xlink:href="#glyph-0-14" x="150" y="31.671875"/>
</g>
</svg>
