<?xml version="1.0" encoding="UTF-8"?>
<svg xmlns="http://www.w3.org/2000/svg" xmlns:xlink="http://www.w3.org/1999/xlink" width="854" height="480" viewBox="0 0 854 480">
<defs>
<g>
<g id="glyph-0-0">
<path d="M 2.664062 -2.539062 C 2.664062 -2.382812 2.636719 -2.230469 2.578125 -2.089844 C 2.523438 -1.949219 2.445312 -1.832031 2.347656 -1.730469 C 2.222656 -1.605469 2.074219 -1.515625 1.90625 -1.449219 C 1.734375 -1.386719 1.519531 -1.355469 1.261719 -1.355469 L 0.851562 -1.355469 L 0.851562 0 L 0.367188 0 L 0.367188 -3.636719 L 1.28125 -3.636719 C 1.496094 -3.636719 1.679688 -3.617188 1.832031 -3.582031 C 1.980469 -3.546875 2.117188 -3.488281 2.230469 -3.40625 C 2.367188 -3.316406 2.472656 -3.199219 2.546875 -3.054688 C 2.625 -2.914062 2.664062 -2.742188 2.664062 -2.539062 M 2.160156 -2.527344 C 2.160156 -2.652344 2.140625 -2.761719 2.097656 -2.855469 C 2.054688 -2.945312 1.988281 -3.023438 1.898438 -3.082031 C 1.824219 -3.132812 1.734375 -3.167969 1.632812 -3.1875 C 1.53125 -3.210938 1.402344 -3.21875 1.253906 -3.21875 L 0.851562 -3.21875 L 0.851562 -1.765625 L 1.179688 -1.765625 C 1.375 -1.765625 1.535156 -1.785156 1.65625 -1.816406 C 1.777344 -1.847656 1.875 -1.902344 1.957031 -1.984375 C 2.027344 -2.058594 2.078125 -2.136719 2.113281 -2.222656 C 2.144531 -2.308594 2.160156 -2.410156 2.160156 -2.527344 Z "/>
</g>
<g id="glyph-0-1">
<path d="M 1.855469 -0.671875 L 1.855469 -1.429688 C 1.746094 -1.417969 1.609375 -1.40625 1.441406 -1.386719 C 1.273438 -1.371094 1.140625 -1.347656 1.039062 -1.316406 C 0.914062 -1.277344 0.816406 -1.222656 0.734375 -1.144531 C 0.65625 -1.066406 0.613281 -0.957031 0.617188 -0.820312 C 0.613281 -0.664062 0.660156 -0.546875 0.746094 -0.464844 C 0.835938 -0.386719 0.964844 -0.347656 1.132812 -0.347656 C 1.277344 -0.347656 1.410156 -0.378906 1.527344 -0.441406 C 1.644531 -0.503906 1.753906 -0.582031 1.855469 -0.671875 M 1.855469 -0.289062 C 1.816406 -0.261719 1.769531 -0.222656 1.707031 -0.175781 C 1.644531 -0.125 1.582031 -0.0859375 1.523438 -0.0546875 C 1.441406 -0.015625 1.363281 0.0195312 1.289062 0.0429688 C 1.210938 0.0625 1.105469 0.0742188 0.96875 0.0742188 C 0.855469 0.0742188 0.75 0.0546875 0.648438 0.0117188 C 0.546875 -0.03125 0.460938 -0.0898438 0.382812 -0.164062 C 0.308594 -0.242188 0.25 -0.332031 0.207031 -0.441406 C 0.164062 -0.554688 0.140625 -0.667969 0.140625 -0.789062 C 0.140625 -0.980469 0.179688 -1.140625 0.261719 -1.273438 C 0.339844 -1.40625 0.46875 -1.511719 0.640625 -1.589844 C 0.792969 -1.660156 0.972656 -1.707031 1.179688 -1.734375 C 1.390625 -1.761719 1.613281 -1.78125 1.855469 -1.792969 L 1.855469 -1.882812 C 1.855469 -1.988281 1.839844 -2.078125 1.804688 -2.140625 C 1.773438 -2.207031 1.726562 -2.257812 1.671875 -2.296875 C 1.609375 -2.332031 1.539062 -2.355469 1.453125 -2.371094 C 1.371094 -2.382812 1.285156 -2.386719 1.195312 -2.386719 C 1.089844 -2.386719 0.964844 -2.371094 0.820312 -2.339844 C 0.675781 -2.308594 0.535156 -2.261719 0.390625 -2.203125 L 0.363281 -2.203125 L 0.363281 -2.667969 C 0.449219 -2.691406 0.570312 -2.71875 0.726562 -2.75 C 0.886719 -2.777344 1.042969 -2.792969 1.195312 -2.792969 C 1.382812 -2.792969 1.542969 -2.777344 1.671875 -2.75 C 1.796875 -2.71875 1.914062 -2.667969 2.015625 -2.589844 C 2.117188 -2.515625 2.191406 -2.417969 2.238281 -2.300781 C 2.289062 -2.179688 2.3125 -2.035156 2.3125 -1.867188 L 2.3125 0 L 1.855469 0 Z "/>
</g>
<g id="glyph-0-2">
<path d="M 2.476562 -2.726562 L 1.007812 1.007812 L 0.515625 1.007812 L 1.007812 -0.132812 L 0.015625 -2.726562 L 0.511719 -2.726562 L 1.253906 -0.707031 L 1.996094 -2.726562 Z "/>
</g>
<g id="glyph-0-3">
</g>
<g id="glyph-0-4">
<path d="M 0.800781 0 L 0.34375 0 L 0.34375 -3.796875 L 0.800781 -3.796875 Z "/>
</g>
<g id="glyph-0-5">
<path d="M 1.515625 0.0625 C 1.082031 0.0625 0.746094 -0.0585938 0.503906 -0.304688 C 0.265625 -0.550781 0.144531 -0.898438 0.144531 -1.347656 C 0.144531 -1.792969 0.261719 -2.144531 0.492188 -2.410156 C 0.726562 -2.671875 1.03125 -2.804688 1.40625 -2.804688 C 1.574219 -2.804688 1.726562 -2.777344 1.855469 -2.730469 C 1.984375 -2.679688 2.097656 -2.605469 2.195312 -2.5 C 2.292969 -2.394531 2.371094 -2.269531 2.421875 -2.117188 C 2.472656 -1.96875 2.5 -1.78125 2.5 -1.566406 L 2.5 -1.316406 L 0.609375 -1.316406 C 0.609375 -1 0.691406 -0.757812 0.851562 -0.589844 C 1.007812 -0.421875 1.230469 -0.335938 1.511719 -0.335938 C 1.613281 -0.335938 1.710938 -0.347656 1.808594 -0.371094 C 1.90625 -0.394531 1.992188 -0.421875 2.070312 -0.460938 C 2.152344 -0.496094 2.222656 -0.53125 2.28125 -0.566406 C 2.335938 -0.601562 2.382812 -0.636719 2.421875 -0.667969 L 2.449219 -0.667969 L 2.449219 -0.164062 C 2.394531 -0.144531 2.328125 -0.117188 2.25 -0.0859375 C 2.167969 -0.0546875 2.097656 -0.03125 2.035156 -0.0117188 C 1.945312 0.0117188 1.863281 0.03125 1.789062 0.0429688 C 1.71875 0.0585938 1.625 0.0625 1.515625 0.0625 M 2.054688 -1.667969 C 2.050781 -1.792969 2.035156 -1.898438 2.007812 -1.988281 C 1.984375 -2.078125 1.945312 -2.152344 1.898438 -2.214844 C 1.84375 -2.28125 1.773438 -2.335938 1.691406 -2.371094 C 1.605469 -2.40625 1.503906 -2.425781 1.378906 -2.425781 C 1.257812 -2.425781 1.152344 -2.40625 1.066406 -2.371094 C 0.984375 -2.332031 0.90625 -2.28125 0.835938 -2.210938 C 0.765625 -2.136719 0.714844 -2.058594 0.679688 -1.972656 C 0.644531 -1.882812 0.621094 -1.78125 0.609375 -1.667969 Z "/>
</g>
<g id="glyph-0-6">
<path d="M 1.070312 0.0664062 C 0.886719 0.0664062 0.714844 0.0429688 0.558594 -0.0078125 C 0.398438 -0.0546875 0.269531 -0.109375 0.164062 -0.164062 L 0.164062 -0.679688 L 0.1875 -0.679688 C 0.226562 -0.648438 0.273438 -0.613281 0.324219 -0.578125 C 0.378906 -0.539062 0.449219 -0.5 0.539062 -0.460938 C 0.617188 -0.421875 0.699219 -0.390625 0.792969 -0.363281 C 0.886719 -0.335938 0.984375 -0.320312 1.085938 -0.320312 C 1.160156 -0.320312 1.238281 -0.332031 1.320312 -0.347656 C 1.402344 -0.363281 1.464844 -0.386719 1.507812 -0.414062 C 1.5625 -0.449219 1.605469 -0.488281 1.628906 -0.53125 C 1.65625 -0.574219 1.667969 -0.636719 1.667969 -0.722656 C 1.667969 -0.832031 1.636719 -0.914062 1.578125 -0.96875 C 1.519531 -1.023438 1.414062 -1.070312 1.261719 -1.109375 C 1.203125 -1.125 1.128906 -1.140625 1.03125 -1.160156 C 0.9375 -1.179688 0.851562 -1.199219 0.773438 -1.222656 C 0.5625 -1.285156 0.410156 -1.375 0.316406 -1.503906 C 0.222656 -1.628906 0.175781 -1.78125 0.175781 -1.960938 C 0.175781 -2.207031 0.269531 -2.40625 0.453125 -2.5625 C 0.640625 -2.714844 0.886719 -2.792969 1.195312 -2.792969 C 1.34375 -2.792969 1.496094 -2.773438 1.648438 -2.738281 C 1.804688 -2.699219 1.933594 -2.652344 2.035156 -2.59375 L 2.035156 -2.105469 L 2.011719 -2.105469 C 1.894531 -2.195312 1.765625 -2.269531 1.621094 -2.324219 C 1.476562 -2.378906 1.332031 -2.40625 1.183594 -2.40625 C 1.03125 -2.40625 0.90625 -2.375 0.800781 -2.308594 C 0.695312 -2.246094 0.644531 -2.148438 0.644531 -2.023438 C 0.644531 -1.90625 0.675781 -1.824219 0.738281 -1.765625 C 0.800781 -1.710938 0.898438 -1.664062 1.035156 -1.628906 C 1.101562 -1.609375 1.179688 -1.59375 1.261719 -1.574219 C 1.347656 -1.558594 1.4375 -1.539062 1.527344 -1.515625 C 1.730469 -1.464844 1.882812 -1.382812 1.984375 -1.265625 C 2.085938 -1.148438 2.136719 -0.988281 2.136719 -0.785156 C 2.136719 -0.667969 2.113281 -0.558594 2.066406 -0.453125 C 2.019531 -0.347656 1.953125 -0.257812 1.863281 -0.183594 C 1.765625 -0.101562 1.65625 -0.0390625 1.53125 0.00390625 C 1.410156 0.0429688 1.253906 0.0664062 1.070312 0.0664062 Z "/>
</g>
<g id="glyph-0-7">
<path d="M 1.046875 0 L 0.464844 0 L 0.464844 -0.695312 L 1.046875 -0.695312 Z "/>
</g>
</g>
</defs>
<g fill="rgb(22.352941%, 100%, 7.843137%)" fill-opacity="1">
<use xlink:href="#glyph-0-0" x="30" y="25.00293"/>
<use xlink:href="#glyph-0-1" x="32.943359" y="25.00293"/>
<use xlink:href="#glyph-0-2" x="35.983398" y="25.00293"/>
<use xlink:href="#glyph-0-3" x="38" y="25.00293"/>
<use xlink:href="#glyph-0-4" x="40" y="25.00293"/>
<use xlink:href="#glyph-0-5" x="41" y="25.00293"/>
<use xlink:href="#glyph-0-6" x="44" y="25.00293"/>
<use xlink:href="#glyph-0-6" x="46" y="25.00293"/>
<use xlink:href="#glyph-0-7" x="48" y="25.00293"/>
</g>
</svg>
