<svg xmlns="http://www.w3.org/2000/svg" viewBox="0 0 256 256" width="256" height="256">
  <defs>
    <linearGradient id="bg" x1="0%" y1="0%" x2="100%" y2="100%">
      <stop offset="0%" style="stop-color:#0a0a0f"/>
      <stop offset="100%" style="stop-color:#111120"/>
    </linearGradient>
    <linearGradient id="cyan" x1="0%" y1="0%" x2="100%" y2="100%">
      <stop offset="0%" style="stop-color:#12c7ef"/>
      <stop offset="100%" style="stop-color:#0a8aa8"/>
    </linearGradient>
  </defs>
  <!-- Background circle -->
  <circle cx="128" cy="128" r="120" fill="url(#bg)" stroke="#12c7ef" stroke-width="3"/>
  <!-- Shield shape -->
  <path d="M128 28 L200 68 L200 148 Q200 198 128 228 Q56 198 56 148 L56 68 Z" 
        fill="none" stroke="url(#cyan)" stroke-width="5" stroke-linejoin="round"/>
  <!-- Harness lines inside shield -->
  <path d="M128 48 L128 188" stroke="#12c7ef" stroke-width="4" stroke-linecap="round"/>
  <path d="M80 88 L176 88" stroke="#12c7ef" stroke-width="3" stroke-linecap="round"/>
  <path d="M72 128 L184 128" stroke="#12c7ef" stroke-width="3" stroke-linecap="round"/>
  <path d="M88 168 L168 168" stroke="#12c7ef" stroke-width="2" stroke-linecap="round"/>
  <!-- Corner nodes -->
  <circle cx="128" cy="48" r="6" fill="#12c7ef"/>
  <circle cx="80" cy="88" r="5" fill="#12c7ef"/>
  <circle cx="176" cy="88" r="5" fill="#12c7ef"/>
  <circle cx="72" cy="128" r="5" fill="#12c7ef"/>
  <circle cx="184" cy="128" r="5" fill="#12c7ef"/>
  <circle cx="128" cy="188" r="6" fill="#12c7ef"/>
  <circle cx="88" cy="168" r="4" fill="#0a8aa8"/>
  <circle cx="168" cy="168" r="4" fill="#0a8aa8"/>
</svg>